<svg width="20" height="20" viewBox="0 0 20 20" fill="none" xmlns="http://www.w3.org/2000/svg">
<path d="M10 7.39658C8.56641 7.39658 7.39649 8.5665 7.39649 10.0001C7.39649 11.4337 8.56641 12.6036 10 12.6036C11.4336 12.6036 12.6035 11.4337 12.6035 10.0001C12.6035 8.5665 11.4336 7.39658 10 7.39658ZM17.8086 10.0001C17.8086 8.92197 17.8184 7.85361 17.7578 6.77744C17.6973 5.52744 17.4121 4.41806 16.498 3.504C15.582 2.58798 14.4746 2.30478 13.2246 2.24423C12.1465 2.18369 11.0781 2.19345 10.002 2.19345C8.92383 2.19345 7.85547 2.18369 6.7793 2.24423C5.5293 2.30478 4.41992 2.58994 3.50586 3.504C2.58984 4.42001 2.30664 5.52744 2.24609 6.77744C2.18555 7.85556 2.19531 8.92392 2.19531 10.0001C2.19531 11.0763 2.18555 12.1466 2.24609 13.2227C2.30664 14.4727 2.5918 15.5821 3.50586 16.4962C4.42188 17.4122 5.5293 17.6954 6.7793 17.756C7.85742 17.8165 8.92578 17.8067 10.002 17.8067C11.0801 17.8067 12.1484 17.8165 13.2246 17.756C14.4746 17.6954 15.584 17.4102 16.498 16.4962C17.4141 15.5802 17.6973 14.4727 17.7578 13.2227C17.8203 12.1466 17.8086 11.0782 17.8086 10.0001ZM10 14.006C7.7832 14.006 5.99414 12.2169 5.99414 10.0001C5.99414 7.7833 7.7832 5.99423 10 5.99423C12.2168 5.99423 14.0059 7.7833 14.0059 10.0001C14.0059 12.2169 12.2168 14.006 10 14.006ZM14.1699 6.76572C13.6523 6.76572 13.2344 6.34775 13.2344 5.83017C13.2344 5.31259 13.6523 4.89462 14.1699 4.89462C14.6875 4.89462 15.1055 5.31259 15.1055 5.83017C15.1056 5.95307 15.0815 6.0748 15.0346 6.18837C14.9876 6.30195 14.9187 6.40514 14.8318 6.49205C14.7449 6.57895 14.6417 6.64786 14.5281 6.69482C14.4145 6.74178 14.2928 6.76587 14.1699 6.76572Z" fill="#090809"/>
</svg>
