<svg width="20" height="20" viewBox="0 0 20 20" fill="none" xmlns="http://www.w3.org/2000/svg">
<g clip-path="url(#clip0)">
<path fill-rule="evenodd" clip-rule="evenodd" d="M19.5417 4.95675C19.68 4.50175 19.5417 4.16675 18.8792 4.16675H16.6917C16.135 4.16675 15.8783 4.45591 15.7392 4.77508C15.7392 4.77508 14.6267 7.43841 13.0508 9.16841C12.5408 9.67008 12.3092 9.82925 12.0308 9.82925C11.8917 9.82925 11.6825 9.67008 11.6825 9.21425V4.95675C11.6825 4.41008 11.5292 4.16675 11.0658 4.16675H7.62583C7.27833 4.16675 7.06917 4.42008 7.06917 4.66091C7.06917 5.17841 7.8575 5.29841 7.93833 6.75508V9.92008C7.93833 10.6142 7.81083 10.7401 7.5325 10.7401C6.79083 10.7401 4.98667 8.06425 3.91583 5.00258C3.70833 4.40675 3.49833 4.16675 2.93917 4.16675H0.75C0.125 4.16675 0 4.45591 0 4.77508C0 5.34341 0.741667 8.16675 3.45417 11.9009C5.2625 14.4509 7.80833 15.8334 10.1275 15.8334C11.5183 15.8334 11.69 15.5267 11.69 14.9976V13.0701C11.69 12.4559 11.8217 12.3334 12.2625 12.3334C12.5875 12.3334 13.1433 12.4934 14.4417 13.7226C15.925 15.1801 16.1692 15.8334 17.0042 15.8334H19.1917C19.8167 15.8334 20.13 15.5267 19.95 14.9201C19.7517 14.3167 19.0433 13.4409 18.1042 12.4017C17.5942 11.8101 16.8292 11.1726 16.5967 10.8534C16.2725 10.4442 16.365 10.2617 16.5967 9.89758C16.5967 9.89758 19.2633 6.20925 19.5408 4.95675H19.5417Z" fill="#090809"/>
</g>
<defs>
<clipPath id="clip0">
<rect width="20" height="20" fill="white"/>
</clipPath>
</defs>
</svg>
