<svg width="3228" height="1152" viewBox="0 0 3228 1152" fill="none" xmlns="http://www.w3.org/2000/svg">
<path d="M763.482 739.642C763.482 508.61 881.573 439.693 881.573 342.325C881.573 303.575 861.932 275.616 822.65 275.616C748.26 275.616 629.677 384.265 629.677 531.173C629.677 539.266 635.324 545.644 642.198 545.644C649.072 545.644 654.719 539.021 654.719 531.173C654.719 525.287 650.791 521.363 650.791 504.686C650.791 453.917 676.815 409.526 709.223 409.526C725.918 409.526 743.84 422.769 743.84 458.332C743.84 567.471 612 682.006 612 792.126C612 875.514 682.462 927.509 745.313 927.509C784.351 927.509 808.411 913.283 816.512 908.133C824.123 903.228 827.315 897.587 821.914 891.946C787.051 855.403 763.482 798.994 763.482 739.642ZM754.398 351.646C754.398 344.778 760.044 339.138 766.919 339.138C773.793 339.138 779.44 344.778 779.44 351.646C779.44 358.512 773.793 364.154 766.919 364.154C760.044 364.154 754.398 358.512 754.398 351.646Z" fill="url(#paint0_linear)"/>
<path d="M827.562 479.425C787.298 547.852 731.32 647.426 731.32 739.643C731.32 798.995 765.201 864.724 821.914 891.948C786.806 855.159 763.483 798.995 763.483 739.643C763.483 626.335 796.381 540.985 827.562 479.425Z" fill="url(#paint1_linear)"/>
<path d="M731.313 390.642C704.308 388.434 675.828 417.129 661.343 451.22C671.9 426.45 689.331 409.772 709.218 409.772C725.913 409.772 743.835 423.016 743.835 458.578C743.835 496.593 727.877 535.098 707.254 573.848C734.26 529.947 758.811 483.84 762.003 444.843C764.949 407.319 747.027 391.868 731.313 390.642Z" fill="url(#paint2_linear)"/>
<path d="M1172.26 781.585C1165.38 788.452 1144.51 815.921 1078.72 815.921C962.342 815.921 857.999 754.116 857.999 669.747C857.999 509.841 1192.39 519.65 1192.39 306.032C1192.39 265.319 1178.88 238.586 1170.29 223.38C1163.91 212.099 1153.6 211.608 1153.6 225.588C1153.6 370.289 791.956 393.589 791.956 669.747C791.956 827.939 917.658 927.512 1046.8 927.512C1126.1 927.512 1189.69 869.877 1189.69 790.414C1189.93 779.868 1179.62 773.982 1172.26 781.585Z" fill="url(#paint3_radial)"/>
<path d="M792.207 669.747C792.207 393.589 1153.6 370.534 1153.6 225.588C1153.6 211.608 1164.16 212.099 1170.3 223.38C1178.89 238.586 1192.39 265.319 1192.39 306.032C1192.39 451.224 1037.72 493.163 938.778 555.458C892.13 584.643 800.308 664.107 816.267 782.32C801.045 749.456 792.207 711.687 792.207 669.747Z" fill="url(#paint4_linear)"/>
<path d="M1572.82 502.925C1573.26 503.508 1573.48 504.31 1573.48 505.332C1573.48 506.644 1572.97 507.811 1571.95 508.832C1571.07 509.853 1569.9 510.364 1568.44 510.364H1545.88C1544.13 510.364 1542.82 510.072 1541.94 509.489C1541.07 508.759 1540.19 507.811 1539.31 506.644L1501.64 446.478H1480.84V505.113C1480.84 506.571 1480.33 507.811 1479.3 508.832C1478.43 509.853 1477.19 510.364 1475.58 510.364H1455.65C1454.19 510.364 1452.95 509.853 1451.93 508.832C1450.9 507.811 1450.39 506.571 1450.39 505.113V362.682C1450.39 361.077 1450.83 359.764 1451.71 358.744C1452.73 357.722 1454.04 357.212 1455.65 357.212H1475.58C1477.19 357.212 1478.43 357.722 1479.3 358.744C1480.33 359.764 1480.84 361.077 1480.84 362.682V419.129L1500.11 419.348L1535.59 361.15C1537.05 358.525 1539.68 357.212 1543.47 357.212H1565.16C1566.62 357.212 1567.71 357.65 1568.44 358.525C1569.32 359.4 1569.76 360.494 1569.76 361.807C1569.76 362.39 1569.47 363.265 1568.88 364.432L1527.49 431.163L1572.82 502.925Z" fill="white"/>
<path d="M1599.96 551.937C1598.5 551.937 1597.26 551.427 1596.24 550.406C1595.22 549.531 1594.71 548.29 1594.71 546.686V401.849C1594.71 400.244 1595.22 399.005 1596.24 398.13C1597.26 397.108 1598.5 396.598 1599.96 396.598H1617.27C1618.87 396.598 1620.11 397.108 1620.99 398.13C1622.01 399.005 1622.52 400.244 1622.52 401.849V410.6C1630.7 399.807 1642.38 394.41 1657.57 394.41C1672.31 394.41 1683.63 399.077 1691.51 408.413C1699.4 417.602 1703.63 430.073 1704.22 445.825C1704.36 447.576 1704.44 450.128 1704.44 453.483C1704.44 456.983 1704.36 459.609 1704.22 461.359C1703.63 476.674 1699.4 489.072 1691.51 498.553C1683.63 507.888 1672.31 512.556 1657.57 512.556C1642.82 512.556 1631.58 507.377 1623.84 497.022V546.686C1623.84 548.29 1623.33 549.531 1622.3 550.406C1621.43 551.427 1620.19 551.937 1618.58 551.937H1599.96ZM1649.46 489.145C1665.23 489.145 1673.63 479.445 1674.65 460.047C1674.79 458.587 1674.87 456.399 1674.87 453.483C1674.87 450.565 1674.79 448.377 1674.65 446.919C1673.63 427.519 1665.23 417.82 1649.46 417.82C1640.99 417.82 1634.71 420.518 1630.63 425.916C1626.54 431.312 1624.28 437.949 1623.84 445.825L1623.62 454.139L1623.84 462.672C1624.13 469.964 1626.39 476.237 1630.63 481.488C1635.01 486.592 1641.29 489.145 1649.46 489.145Z" fill="white"/>
<path d="M1762.09 512.556C1754.64 512.556 1747.79 511.096 1741.5 508.18C1735.37 505.117 1730.48 501.032 1726.83 495.928C1723.32 490.822 1721.57 485.207 1721.57 479.081C1721.57 469.162 1725.59 461.14 1733.62 455.014C1741.65 448.888 1752.67 444.731 1766.69 442.543L1796.69 438.168V433.573C1796.69 427.155 1795.09 422.342 1791.87 419.133C1788.67 415.924 1783.49 414.32 1776.32 414.32C1771.51 414.32 1767.56 415.267 1764.5 417.164C1761.58 418.914 1759.24 420.665 1757.49 422.415C1755.74 424.311 1754.58 425.55 1753.98 426.134C1753.4 427.885 1752.31 428.76 1750.7 428.76H1733.83C1732.52 428.76 1731.36 428.322 1730.33 427.447C1729.45 426.572 1729.02 425.405 1729.02 423.947C1729.17 420.299 1730.92 416.142 1734.27 411.476C1737.78 406.808 1743.11 402.796 1750.26 399.442C1757.42 396.087 1766.18 394.41 1776.54 394.41C1793.78 394.41 1806.33 398.275 1814.21 406.006C1822.1 413.736 1826.04 423.873 1826.04 436.417V505.117C1826.04 506.575 1825.54 507.814 1824.51 508.836C1823.63 509.857 1822.39 510.368 1820.78 510.368H1803.04C1801.59 510.368 1800.35 509.857 1799.32 508.836C1798.3 507.814 1797.79 506.575 1797.79 505.117V496.584C1794.58 501.251 1789.98 505.117 1783.99 508.18C1778.15 511.096 1770.85 512.556 1762.09 512.556ZM1769.53 491.771C1777.57 491.771 1784.14 489.145 1789.25 483.894C1794.36 478.643 1796.91 470.986 1796.91 460.922V456.327L1775.01 459.828C1766.54 461.14 1760.12 463.255 1755.74 466.173C1751.51 469.089 1749.38 472.663 1749.38 476.893C1749.38 481.56 1751.36 485.207 1755.3 487.833C1759.24 490.458 1763.99 491.771 1769.53 491.771Z" fill="white"/>
<path d="M1903.42 512.556C1887.37 512.556 1874.51 508.107 1864.87 499.21C1855.39 490.311 1850.35 477.987 1849.76 462.234L1849.54 453.483L1849.76 444.731C1850.35 428.979 1855.39 416.653 1864.87 407.756C1874.51 398.858 1887.37 394.41 1903.42 394.41C1914.81 394.41 1924.45 396.451 1932.33 400.536C1940.37 404.62 1946.28 409.652 1950.07 415.633C1954.01 421.467 1956.14 427.01 1956.42 432.26C1956.58 433.719 1956.06 434.958 1954.89 435.98C1953.87 437.001 1952.63 437.511 1951.17 437.511H1931.89C1930.44 437.511 1929.26 437.219 1928.39 436.636C1927.67 435.907 1926.93 434.739 1926.2 433.136C1924.01 427.447 1921.09 423.362 1917.44 420.883C1913.93 418.404 1909.41 417.164 1903.86 417.164C1896.41 417.164 1890.57 419.571 1886.34 424.384C1882.11 429.051 1879.84 436.199 1879.55 445.825L1879.33 453.92L1879.55 461.14C1880.14 480.247 1888.24 489.802 1903.86 489.802C1909.55 489.802 1914.15 488.561 1917.66 486.082C1921.16 483.602 1924.01 479.519 1926.2 473.83C1926.93 472.225 1927.67 471.131 1928.39 470.548C1929.26 469.819 1930.44 469.454 1931.89 469.454H1951.17C1952.63 469.454 1953.87 469.964 1954.89 470.986C1956.06 472.007 1956.58 473.246 1956.42 474.705C1956.14 479.81 1954.09 485.279 1950.29 491.114C1946.5 496.948 1940.65 501.98 1932.77 506.211C1924.88 510.44 1915.1 512.556 1903.42 512.556Z" fill="white"/>
<path d="M1984.52 510.36C1983.06 510.36 1981.82 509.849 1980.8 508.828C1979.78 507.806 1979.26 506.567 1979.26 505.109V401.841C1979.26 400.382 1979.78 399.142 1980.8 398.121C1981.82 397.1 1983.06 396.59 1984.52 396.59H2002.7C2004.31 396.59 2005.55 397.1 2006.42 398.121C2007.44 398.997 2007.96 400.236 2007.96 401.841V441.004H2057.45V401.841C2057.45 400.236 2057.97 398.997 2058.99 398.121C2060 397.1 2061.25 396.59 2062.71 396.59H2080.89C2082.5 396.59 2083.74 397.1 2084.61 398.121C2085.63 398.997 2086.14 400.236 2086.14 401.841V505.109C2086.14 506.567 2085.63 507.806 2084.61 508.828C2083.74 509.849 2082.5 510.36 2080.89 510.36H2062.71C2061.25 510.36 2060 509.849 2058.99 508.828C2057.97 507.806 2057.45 506.567 2057.45 505.109V463.977H2007.96V505.109C2007.96 506.567 2007.44 507.806 2006.42 508.828C2005.55 509.849 2004.31 510.36 2002.7 510.36H1984.52Z" fill="white"/>
<path d="M2166.1 512.556C2149.01 512.556 2135.8 508.18 2126.45 499.428C2117.11 490.53 2112.08 478.425 2111.34 463.11L2111.12 453.483L2111.34 443.856C2112.08 428.687 2117.18 416.653 2126.67 407.756C2136.17 398.858 2149.31 394.41 2166.1 394.41C2182.88 394.41 2196.02 398.858 2205.52 407.756C2215.01 416.653 2220.12 428.687 2220.85 443.856C2220.99 445.607 2221.07 448.815 2221.07 453.483C2221.07 458.15 2220.99 461.359 2220.85 463.11C2220.12 478.425 2215.08 490.53 2205.74 499.428C2196.4 508.18 2183.18 512.556 2166.1 512.556ZM2166.1 490.896C2173.84 490.896 2179.82 488.489 2184.06 483.676C2188.29 478.716 2190.63 471.496 2191.06 462.016C2191.21 460.556 2191.28 457.712 2191.28 453.483C2191.28 449.253 2191.21 446.408 2191.06 444.95C2190.63 435.469 2188.29 428.322 2184.06 423.509C2179.82 418.549 2173.84 416.07 2166.1 416.07C2158.35 416.07 2152.37 418.549 2148.14 423.509C2143.9 428.322 2141.57 435.469 2141.13 444.95L2140.91 453.483L2141.13 462.016C2141.57 471.496 2143.9 478.716 2148.14 483.676C2152.37 488.489 2158.35 490.896 2166.1 490.896Z" fill="white"/>
<path d="M2351.56 450.852C2351.7 452.455 2351.78 454.935 2351.78 458.291C2351.78 461.499 2351.7 463.832 2351.56 465.292C2350.83 479.877 2345.79 491.4 2336.45 499.86C2327.25 508.32 2314.03 512.55 2296.81 512.55C2278.7 512.55 2265.19 507.882 2256.29 498.548C2247.53 489.066 2242.79 475.137 2242.05 456.759L2241.83 443.632L2242.05 430.505C2242.49 409.792 2245.7 394.258 2251.69 383.903C2257.68 373.401 2266.36 365.815 2277.75 361.149C2289.14 356.335 2307.54 350.866 2332.94 344.74L2334.04 344.521C2335.21 344.521 2336.31 344.958 2337.32 345.834C2338.34 346.562 2338.93 347.584 2339.08 348.897L2341.92 363.337L2342.14 364.649C2342.14 365.816 2341.78 366.837 2341.05 367.712C2340.31 368.441 2339.37 368.952 2338.2 369.244L2331.19 370.775C2313.81 374.714 2301.33 378.068 2293.74 380.84C2286.29 383.465 2280.6 387.549 2276.66 393.092C2272.71 398.634 2270.45 406.948 2269.87 418.034C2273.37 413.658 2277.97 410.157 2283.67 407.532C2289.5 404.906 2295.63 403.594 2302.06 403.594C2317.39 403.594 2329.3 407.823 2337.76 416.283C2346.23 424.743 2350.83 436.265 2351.56 450.852ZM2321.77 464.198C2321.92 463.176 2321.99 461.28 2321.99 458.509C2321.99 455.446 2321.92 453.258 2321.77 451.946C2321.48 442.902 2319.29 435.974 2315.2 431.161C2311.12 426.201 2305.57 423.722 2298.56 423.722C2290.53 423.722 2284.18 426.201 2279.5 431.161C2274.83 435.974 2272.35 442.902 2272.06 451.946L2271.84 458.509L2272.06 464.198C2272.35 473.387 2274.61 480.388 2278.85 485.201C2283.08 490.015 2289.06 492.421 2296.81 492.421C2304.55 492.421 2310.53 490.087 2314.77 485.42C2319.15 480.607 2321.48 473.532 2321.77 464.198Z" fill="white"/>
<path d="M2426.39 512.556C2409.3 512.556 2396.1 508.18 2386.75 499.428C2377.4 490.53 2372.37 478.425 2371.63 463.11L2371.41 453.483L2371.63 443.856C2372.37 428.687 2377.48 416.653 2386.96 407.756C2396.46 398.858 2409.6 394.41 2426.39 394.41C2443.19 394.41 2456.33 398.858 2465.81 407.756C2475.3 416.653 2480.42 428.687 2481.14 443.856C2481.29 445.607 2481.36 448.815 2481.36 453.483C2481.36 458.15 2481.29 461.359 2481.14 463.11C2480.42 478.425 2475.38 490.53 2466.03 499.428C2456.69 508.18 2443.47 512.556 2426.39 512.556ZM2426.39 490.896C2434.13 490.896 2440.12 488.489 2444.35 483.676C2448.58 478.716 2450.92 471.496 2451.36 462.016C2451.51 460.556 2451.57 457.712 2451.57 453.483C2451.57 449.253 2451.51 446.408 2451.36 444.95C2450.92 435.469 2448.58 428.322 2444.35 423.509C2440.12 418.549 2434.13 416.07 2426.39 416.07C2418.66 416.07 2412.67 418.549 2408.43 423.509C2404.2 428.322 2401.86 435.469 2401.42 444.95L2401.2 453.483L2401.42 462.016C2401.86 471.496 2404.2 478.716 2408.43 483.676C2412.67 488.489 2418.66 490.896 2426.39 490.896Z" fill="white"/>
<path d="M2511.1 551.937C2509.65 551.937 2508.41 551.427 2507.38 550.406C2506.36 549.531 2505.85 548.29 2505.85 546.686V401.849C2505.85 400.244 2506.36 399.005 2507.38 398.13C2508.41 397.108 2509.65 396.598 2511.1 396.598H2528.4C2530.01 396.598 2531.25 397.108 2532.13 398.13C2533.16 399.005 2533.66 400.244 2533.66 401.849V410.6C2541.84 399.807 2553.53 394.41 2568.7 394.41C2583.45 394.41 2594.77 399.077 2602.65 408.413C2610.54 417.602 2614.77 430.073 2615.35 445.825C2615.51 447.576 2615.57 450.128 2615.57 453.483C2615.57 456.983 2615.51 459.609 2615.35 461.359C2614.77 476.674 2610.54 489.072 2602.65 498.553C2594.77 507.888 2583.45 512.556 2568.7 512.556C2553.96 512.556 2542.72 507.377 2534.97 497.022V546.686C2534.97 548.29 2534.47 549.531 2533.44 550.406C2532.57 551.427 2531.33 551.937 2529.72 551.937H2511.1ZM2560.6 489.145C2576.37 489.145 2584.77 479.445 2585.79 460.047C2585.94 458.587 2586.01 456.399 2586.01 453.483C2586.01 450.565 2585.94 448.377 2585.79 446.919C2584.77 427.519 2576.37 417.82 2560.6 417.82C2552.13 417.82 2545.86 420.518 2541.76 425.916C2537.68 431.312 2535.41 437.949 2534.97 445.825L2534.76 454.139L2534.97 462.672C2535.27 469.964 2537.54 476.237 2541.76 481.488C2546.14 486.592 2552.43 489.145 2560.6 489.145Z" fill="white"/>
<path d="M1551.58 659.136C1552.89 659.136 1554.06 659.646 1555.08 660.668C1556.11 661.543 1556.62 662.637 1556.62 663.949V767.655C1556.62 769.113 1556.11 770.352 1555.08 771.374C1554.06 772.395 1552.82 772.906 1551.36 772.906H1533.18C1531.72 772.906 1530.48 772.395 1529.46 771.374C1528.44 770.352 1527.92 769.113 1527.92 767.655V697.424L1475.36 769.405C1474.05 771.738 1472.08 772.906 1469.45 772.906H1452.8C1451.49 772.906 1450.32 772.468 1449.3 771.593C1448.28 770.571 1447.76 769.332 1447.76 767.874V664.387C1447.76 662.928 1448.28 661.688 1449.3 660.668C1450.32 659.646 1451.56 659.136 1453.02 659.136H1471.2C1472.81 659.136 1474.05 659.646 1474.92 660.668C1475.95 661.543 1476.46 662.782 1476.46 664.387V734.837L1529.02 662.637C1530.63 660.302 1532.6 659.136 1534.93 659.136H1551.58Z" fill="white"/>
<path d="M1589.48 772.906C1588.02 772.906 1586.78 772.395 1585.76 771.374C1584.73 770.352 1584.22 769.113 1584.22 767.655V664.387C1584.22 662.928 1584.73 661.688 1585.76 660.668C1586.78 659.646 1588.02 659.136 1589.48 659.136H1607.66C1609.26 659.136 1610.5 659.646 1611.38 660.668C1612.4 661.543 1612.91 662.782 1612.91 664.387V703.55H1662.41V664.387C1662.41 662.782 1662.92 661.543 1663.94 660.668C1664.97 659.646 1666.21 659.136 1667.67 659.136H1685.85C1687.45 659.136 1688.69 659.646 1689.57 660.668C1690.59 661.543 1691.1 662.782 1691.1 664.387V767.655C1691.1 769.113 1690.59 770.352 1689.57 771.374C1688.69 772.395 1687.45 772.906 1685.85 772.906H1667.67C1666.21 772.906 1664.97 772.395 1663.94 771.374C1662.92 770.352 1662.41 769.113 1662.41 767.655V726.523H1612.91V767.655C1612.91 769.113 1612.4 770.352 1611.38 771.374C1610.5 772.395 1609.26 772.906 1607.66 772.906H1589.48Z" fill="white"/>
<path d="M1716.3 796.972C1714.84 796.972 1713.6 796.461 1712.58 795.441C1711.55 794.566 1711.05 793.325 1711.05 791.721V754.965C1711.05 753.506 1711.55 752.266 1712.58 751.246C1713.6 750.224 1714.84 749.714 1716.3 749.714H1718.06C1723.75 749.714 1727.91 745.192 1730.54 736.149C1733.17 727.106 1734.48 713.03 1734.48 693.923V664.387C1734.48 662.782 1734.99 661.543 1736.01 660.668C1737.03 659.646 1738.27 659.136 1739.74 659.136H1817.71C1819.31 659.136 1820.56 659.646 1821.43 660.668C1822.45 661.543 1822.96 662.782 1822.96 664.387V749.495H1832.82C1834.42 749.495 1835.67 750.005 1836.54 751.027C1837.56 751.902 1838.08 753.141 1838.08 754.746V791.721C1838.08 793.325 1837.56 794.566 1836.54 795.441C1835.67 796.461 1834.42 796.972 1832.82 796.972H1814.86C1813.25 796.972 1811.94 796.461 1810.92 795.441C1809.89 794.419 1809.39 793.18 1809.39 791.721V772.906H1739.74V791.721C1739.74 793.325 1739.22 794.566 1738.2 795.441C1737.33 796.461 1736.08 796.972 1734.48 796.972H1716.3ZM1794.49 749.495V682.328H1762.08V696.986C1762.08 722.074 1758.64 739.65 1751.78 749.714L1794.49 749.495Z" fill="white"/>
<path d="M1907.26 775.1C1891.06 775.1 1878.13 770.433 1868.5 761.098C1859.01 751.617 1853.98 738.344 1853.39 721.279L1853.17 715.809L1853.39 710.339C1854.12 693.711 1859.23 680.656 1868.72 671.176C1878.35 661.695 1891.21 656.955 1907.26 656.955C1924.5 656.955 1937.78 662.206 1947.12 672.708C1956.62 683.209 1961.36 697.212 1961.36 714.715V719.309C1961.36 720.768 1960.86 722.007 1959.83 723.029C1958.81 724.05 1957.49 724.56 1955.88 724.56H1883.17V726.311C1883.47 734.333 1885.66 741.115 1889.74 746.658C1893.98 752.054 1899.75 754.753 1907.04 754.753C1915.66 754.753 1922.59 751.398 1927.85 744.689C1929.16 743.084 1930.19 742.063 1930.92 741.626C1931.79 741.188 1933.04 740.97 1934.64 740.97H1953.48C1954.79 740.97 1955.88 741.407 1956.76 742.282C1957.79 743.011 1958.29 743.959 1958.29 745.126C1958.29 748.627 1956.18 752.784 1951.94 757.597C1947.86 762.264 1941.94 766.349 1934.2 769.85C1926.47 773.35 1917.49 775.1 1907.26 775.1ZM1931.57 706.182V705.526C1931.57 696.92 1929.38 689.992 1925 684.741C1920.78 679.49 1914.86 676.865 1907.26 676.865C1899.67 676.865 1893.76 679.49 1889.52 684.741C1885.3 689.992 1883.17 696.92 1883.17 705.526V706.182H1931.57Z" fill="white"/>
<path d="M2088.42 659.137C2089.74 659.137 2090.91 659.647 2091.93 660.668C2092.96 661.543 2093.46 662.637 2093.46 663.95V767.656C2093.46 769.114 2092.96 770.353 2091.93 771.375C2090.91 772.396 2089.67 772.907 2088.2 772.907H2070.03C2068.57 772.907 2067.33 772.396 2066.3 771.375C2065.28 770.353 2064.77 769.114 2064.77 767.656V697.425L2012.21 769.406C2010.89 771.739 2008.92 772.907 2006.29 772.907H1989.65C1988.33 772.907 1987.17 772.469 1986.14 771.594C1985.12 770.572 1984.61 769.333 1984.61 767.874V664.388C1984.61 662.928 1985.12 661.689 1986.14 660.668C1987.17 659.647 1988.41 659.137 1989.87 659.137H2008.04C2009.65 659.137 2010.89 659.647 2011.77 660.668C2012.8 661.543 2013.3 662.783 2013.3 664.388V734.837L2065.86 662.637C2067.47 660.303 2069.45 659.137 2071.78 659.137H2088.42ZM2040.24 644.259C2027.83 644.259 2018.78 641.56 2013.08 636.164C2007.39 630.621 2004.54 623.547 2004.54 614.942C2004.54 613.774 2004.91 612.826 2005.63 612.097C2006.37 611.222 2007.39 610.785 2008.7 610.785H2021.19C2022.5 610.785 2023.53 611.222 2024.25 612.097C2024.99 612.826 2025.35 613.774 2025.35 614.942C2025.35 623.256 2030.32 627.413 2040.24 627.413C2050.17 627.413 2055.13 623.256 2055.13 614.942C2055.13 613.774 2055.5 612.826 2056.23 612.097C2056.96 611.222 2057.98 610.785 2059.29 610.785H2072C2073.31 610.785 2074.34 611.222 2075.06 612.097C2075.8 612.826 2076.16 613.774 2076.16 614.942C2076.16 623.547 2073.25 630.621 2067.4 636.164C2061.7 641.56 2052.66 644.259 2040.24 644.259Z" fill="white"/>
<path d="M2225.98 766.123C2226.71 766.852 2227.07 767.8 2227.07 768.967C2227.07 770.134 2226.63 771.082 2225.76 771.812C2224.88 772.54 2223.79 772.906 2222.47 772.906H2200.35C2198.02 772.906 2195.97 771.812 2194.22 769.624L2165.75 726.741H2149.54V767.655C2149.54 769.113 2149.03 770.352 2148.01 771.374C2146.99 772.395 2145.75 772.906 2144.28 772.906H2126.32C2124.87 772.906 2123.63 772.395 2122.6 771.374C2121.58 770.352 2121.07 769.113 2121.07 767.655V664.387C2121.07 662.928 2121.58 661.688 2122.6 660.668C2123.63 659.646 2124.87 659.136 2126.32 659.136H2144.28C2145.75 659.136 2146.99 659.646 2148.01 660.668C2149.03 661.688 2149.54 662.928 2149.54 664.387V703.55H2165.75L2192.03 662.637C2192.9 661.469 2193.78 660.594 2194.66 660.011C2195.53 659.427 2196.7 659.136 2198.16 659.136H2217.65C2219.12 659.136 2220.28 659.5 2221.16 660.23C2222.03 660.959 2222.47 661.907 2222.47 663.074C2222.47 663.949 2222.11 664.897 2221.38 665.918L2190.06 714.052L2225.98 766.123Z" fill="white"/>
<path d="M2279.26 775.1C2271.82 775.1 2264.95 773.641 2258.68 770.725C2252.54 767.662 2247.65 763.577 2244 758.473C2240.5 753.367 2238.75 747.752 2238.75 741.626C2238.75 731.707 2242.76 723.685 2250.79 717.559C2258.82 711.433 2269.85 707.276 2283.86 705.088L2313.87 700.713V696.118C2313.87 689.7 2312.26 684.886 2309.05 681.678C2305.84 678.468 2300.65 676.865 2293.5 676.865C2288.68 676.865 2284.74 677.812 2281.67 679.709C2278.75 681.459 2276.42 683.209 2274.66 684.96C2272.91 686.856 2271.74 688.095 2271.16 688.679C2270.58 690.429 2269.48 691.305 2267.87 691.305H2251.01C2249.7 691.305 2248.52 690.867 2247.51 689.992C2246.63 689.117 2246.19 687.95 2246.19 686.491C2246.33 682.844 2248.09 678.687 2251.45 674.02C2254.95 669.353 2260.29 665.341 2267.44 661.987C2274.59 658.632 2283.35 656.955 2293.72 656.955C2310.94 656.955 2323.5 660.82 2331.39 668.551C2339.27 676.28 2343.22 686.418 2343.22 698.962V767.662C2343.22 769.12 2342.7 770.359 2341.68 771.381C2340.81 772.402 2339.57 772.913 2337.96 772.913H2320.22C2318.76 772.913 2317.51 772.402 2316.5 771.381C2315.48 770.359 2314.96 769.12 2314.96 767.662V759.129C2311.75 763.796 2307.15 767.662 2301.16 770.725C2295.33 773.641 2288.02 775.1 2279.26 775.1ZM2286.71 754.316C2294.74 754.316 2301.31 751.69 2306.42 746.439C2311.54 741.188 2314.09 733.531 2314.09 723.466V718.872L2292.19 722.373C2283.72 723.685 2277.29 725.8 2272.91 728.717C2268.67 731.634 2266.56 735.208 2266.56 739.438C2266.56 744.105 2268.53 747.752 2272.47 750.377C2276.42 753.003 2281.16 754.316 2286.71 754.316Z" fill="white"/>
<defs>
<linearGradient id="paint0_linear" x1="717.586" y1="732.174" x2="815.654" y2="367.306" gradientUnits="userSpaceOnUse">
<stop stop-color="#DDDDDD"/>
<stop offset="0.00284123" stop-color="#DDDDDD"/>
<stop offset="0.4117" stop-color="#EEEEEE"/>
<stop offset="0.7585" stop-color="#F8F8F8"/>
<stop offset="1" stop-color="#FCFCFC"/>
</linearGradient>
<linearGradient id="paint1_linear" x1="817.704" y1="542.262" x2="778.48" y2="795.028" gradientUnits="userSpaceOnUse">
<stop stop-color="#9E9E9E"/>
<stop offset="0.2547" stop-color="#B1B1B1"/>
<stop offset="0.771" stop-color="#E4E4E4"/>
<stop offset="1" stop-color="#FCFCFC"/>
</linearGradient>
<linearGradient id="paint2_linear" x1="712.719" y1="393.355" x2="711.493" y2="463.291" gradientUnits="userSpaceOnUse">
<stop stop-color="#A8A8A8"/>
<stop offset="0.1114" stop-color="#B4B4B4"/>
<stop offset="0.4573" stop-color="#D7D7D7"/>
<stop offset="0.7263" stop-color="#EDEDED"/>
<stop offset="0.8837" stop-color="#F5F5F5"/>
</linearGradient>
<radialGradient id="paint3_radial" cx="0" cy="0" r="1" gradientUnits="userSpaceOnUse" gradientTransform="translate(1032.32 746.456) scale(209.807 195.818)">
<stop offset="0.4988" stop-color="#FCFCFC"/>
<stop offset="0.5829" stop-color="#F5F5F5"/>
<stop offset="0.7072" stop-color="#E1E1E1"/>
<stop offset="0.8556" stop-color="#C0C0C0"/>
<stop offset="1" stop-color="#9A9A9A"/>
</radialGradient>
<linearGradient id="paint4_linear" x1="842.274" y1="631.477" x2="1149.2" y2="347.667" gradientUnits="userSpaceOnUse">
<stop stop-color="#F6F6F6"/>
<stop offset="1" stop-color="#FDFDFD"/>
</linearGradient>
</defs>
</svg>
