<svg width="3228" height="1152" viewBox="0 0 3228 1152" fill="none" xmlns="http://www.w3.org/2000/svg">
<g clip-path="url(#clip0)">
<path d="M290.996 693.146L304.634 692.185C313.62 691.224 317.952 689.783 318.914 681.136L331.269 485.949C332.232 477.302 326.295 475.701 317.31 474.9L303.351 473.94V466.574H372.344L441.659 612.925L510.973 466.574H576.918V473.94L562.959 474.9C553.332 475.861 547.717 477.302 548.679 485.949L561.034 681.136C561.997 689.783 565.687 691.384 575.314 692.185L589.273 693.146V700.511H501.988V693.146L515.626 692.185C525.254 691.224 530.709 689.783 529.907 681.136L517.552 479.544L431.551 660.961H429.625L343.303 479.704L330.948 681.136C329.986 689.783 335.601 691.384 344.586 692.185L358.867 693.146V700.511H291.157V693.146H290.996Z" fill="white"/>
<path d="M624.73 693.146L638.69 692.185C647.675 691.224 652.649 689.783 652.649 681.136V485.949C652.649 477.302 647.675 475.701 638.69 474.9L624.73 473.94V466.574H713.62C769.617 466.574 810.853 478.583 810.853 523.737C810.853 558.323 784.86 576.577 742.501 581.861L850.805 700.831H810.692L706.4 585.704H683.776V681.457C683.776 690.103 688.429 691.704 698.056 692.505L712.015 693.466V700.831H624.73V693.146ZM711.053 575.777C750.684 575.777 775.714 562.487 775.714 525.819C775.714 489.311 750.684 476.181 711.053 476.181H683.776V575.937H711.053V575.777Z" fill="white"/>
<path d="M868.619 693.146L882.578 692.185C891.564 691.224 896.537 689.783 896.537 681.136V485.949C896.537 477.302 891.564 475.701 882.578 474.9L868.619 473.94V466.574H955.904V473.94L941.945 474.9C932.318 475.861 927.665 477.302 927.665 485.949V681.136C927.665 689.783 932.318 691.384 941.945 692.185L955.904 693.146V700.511H868.619V693.146Z" fill="white"/>
<path d="M1051.53 692.825L1070.14 691.864C1079.13 691.544 1084.1 689.623 1084.1 680.976V594.831L1007.41 485.148C1002.43 477.782 1000.67 475.541 991.684 474.58L978.046 473.619V466.254H1067.74V473.619L1052.33 474.58C1042.71 475.541 1037.25 477.943 1042.07 485.148L1110.42 582.982L1179.09 485.148C1184.39 477.782 1178.45 475.541 1168.82 474.58L1153.42 473.619V466.254H1221.45V473.619L1207.81 474.58C1198.83 475.541 1196.9 477.943 1192.09 485.148L1115.39 594.831V680.976C1115.39 689.623 1120.04 690.904 1129.67 691.864L1148.28 692.825V700.511H1051.69V692.825H1051.53Z" fill="white"/>
<path d="M1412.71 681.777C1416.08 689.463 1419.28 691.384 1428.75 692.345L1442.39 693.306V700.671H1353.02V693.306L1368.42 692.345C1378.37 691.384 1382.06 689.623 1378.69 681.777L1352.06 614.526H1264.45L1237.81 681.777C1234.45 689.463 1238.14 691.384 1248.08 692.345L1263.49 693.306V700.671H1196.1V693.306L1209.74 692.345C1218.72 691.384 1222.09 689.623 1225.46 681.777L1316.76 455.366H1321.73L1412.71 681.777ZM1347.4 602.037L1308.41 503.242L1269.42 602.037H1347.4Z" fill="white"/>
<path d="M1530.32 693.146L1544.28 692.185C1553.26 691.224 1558.24 689.783 1558.24 681.136V485.949C1558.24 477.302 1553.26 475.701 1544.28 474.9L1530.32 473.94V466.574H1619.21C1675.21 466.574 1716.44 478.583 1716.44 523.737C1716.44 558.323 1690.45 576.577 1648.09 581.861L1756.39 700.831H1716.44L1612.15 585.704H1589.53V681.457C1589.53 690.103 1594.18 691.704 1603.81 692.505L1617.77 693.466V700.831H1530.48V693.146H1530.32ZM1616.64 575.777C1656.27 575.777 1681.3 562.487 1681.3 525.819C1681.3 489.311 1656.27 476.181 1616.64 476.181H1589.37V575.937H1616.64V575.777Z" fill="white"/>
<path d="M1774.19 693.146L1788.15 692.185C1797.14 691.224 1802.11 689.783 1802.11 681.136V485.949C1802.11 477.302 1797.14 475.701 1788.15 474.9L1774.19 473.94V466.574H1946.52L1956.79 535.106H1951.17L1919.56 481.305C1917.15 476.662 1915.87 476.341 1910.58 476.341H1833.24V573.055H1879.61C1884.9 573.055 1885.55 572.414 1886.35 569.052L1898.7 532.544H1904.32V624.293H1898.7L1886.35 588.106C1885.06 584.743 1884.74 584.103 1879.61 584.103H1833.24V690.584H1925.82C1930.79 690.584 1931.76 689.943 1934.48 686.26L1976.84 631.339H1982.46L1961.44 700.511H1774.19V693.146Z" fill="white"/>
<path d="M2026.91 696.188L2019.85 625.415H2025.46L2052.1 680.016C2054.83 685.3 2058.84 688.983 2064.13 691.064C2070.07 693.306 2076.17 694.107 2087.4 694.107C2119.65 694.107 2146.76 678.095 2146.76 650.554C2146.76 620.931 2124.78 607.001 2092.05 596.433L2075.68 591.149C2039.42 579.78 2018.72 557.523 2018.72 522.937C2018.72 483.387 2058.36 460.81 2099.75 460.81C2119.49 460.81 2137.14 463.212 2152.38 469.136L2163.45 532.064H2157.83L2127.83 482.907C2123.18 475.221 2119.81 473.94 2113.55 472.339C2107.61 471.058 2102.48 470.738 2095.26 470.738C2070.23 470.738 2045.68 486.109 2045.68 512.369C2045.68 533.345 2057.39 548.877 2084.35 557.523L2100.71 562.807C2144.04 577.058 2174.68 594.992 2174.68 636.943C2174.68 677.454 2135.05 703.714 2086.76 703.714C2063.17 704.194 2044.24 702.113 2026.91 696.188Z" fill="white"/>
<path d="M2214.15 582.982C2214.15 509.807 2269.5 461.29 2337.7 461.29C2405.73 461.29 2461.24 509.807 2461.24 582.982C2461.24 655.837 2405.89 704.354 2337.7 704.354C2269.66 704.194 2214.15 655.837 2214.15 582.982ZM2425.3 582.982C2425.3 511.568 2387.92 471.538 2337.7 471.538C2287.31 471.538 2249.77 511.728 2249.77 582.982C2249.77 653.756 2287.15 694.106 2337.7 694.106C2387.76 694.106 2425.3 653.596 2425.3 582.982Z" fill="white"/>
<path d="M2497.99 693.146L2511.95 692.185C2520.93 691.224 2525.9 689.783 2525.9 681.136V485.949C2525.9 477.302 2520.93 475.701 2511.95 474.9L2497.99 473.94V466.574H2586.88C2642.87 466.574 2684.11 478.583 2684.11 523.737C2684.11 558.323 2658.12 576.577 2615.76 581.861L2724.06 700.831H2684.11L2579.82 585.704H2557.19V681.457C2557.19 690.103 2561.85 691.704 2571.47 692.505L2585.43 693.466V700.831H2498.15V693.146H2497.99ZM2584.31 575.777C2623.94 575.777 2648.97 562.487 2648.97 525.819C2648.97 489.311 2623.94 476.181 2584.31 476.181H2557.03V575.937H2584.31V575.777Z" fill="white"/>
<path d="M2790.49 692.825L2809.1 691.865C2818.09 691.544 2823.06 689.623 2823.06 680.976V475.381H2769.15C2763.85 475.381 2762.41 475.701 2760.16 480.344L2732.89 538.789H2727.27L2734.65 466.574H2942.28L2949.98 538.789H2944.36L2916.76 480.344C2914.52 475.701 2913.07 475.381 2908.1 475.381H2854.19V680.976C2854.19 689.623 2858.52 690.904 2868.15 691.865L2886.76 692.825V700.511H2790.17V692.825H2790.49Z" fill="white"/>
</g>
<defs>
<clipPath id="clip0">
<rect width="2672" height="256" fill="white" transform="translate(278 448)"/>
</clipPath>
</defs>
</svg>
