<svg width="3228" height="1152" viewBox="0 0 3228 1152" fill="none" xmlns="http://www.w3.org/2000/svg">
<path d="M1121.82 409.374C1134.42 425.871 1145.08 443.794 1153.59 462.783L912.134 643.157L811.224 579.053V501.933L912.134 566.037L1121.82 409.374Z" fill="white"/>
<path d="M708.238 573.61C708.238 570.15 708.321 566.712 708.487 563.294L647.333 560.257C647.125 564.687 647 569.159 647 573.673C646.974 608.939 653.819 643.862 667.142 676.439C680.466 709.018 700.005 738.61 724.64 763.517L768.018 719.579C749.055 700.44 734.012 677.691 723.753 652.641C713.493 627.59 708.221 600.732 708.238 573.61Z" fill="white"/>
<path d="M912.078 367.042C915.491 367.042 918.883 367.169 922.255 367.337L925.315 305.343C920.931 305.132 916.518 305.026 912.078 305.026C877.261 304.983 842.782 311.91 810.615 325.408C778.449 338.907 749.231 358.712 724.639 383.685L768.017 427.645C786.904 408.422 809.355 393.171 834.078 382.771C858.801 372.37 885.308 367.025 912.078 367.042Z" fill="white"/>
<path d="M912.078 780.183C908.665 780.183 905.271 780.183 901.879 779.908L898.819 841.882C903.218 842.107 907.638 842.22 912.078 842.22C946.879 842.257 981.343 835.326 1013.49 821.823C1045.64 808.321 1074.84 788.513 1099.41 763.54L1056.12 719.602C1037.23 738.815 1014.78 754.057 990.061 764.453C965.343 774.85 938.841 780.196 912.078 780.183Z" fill="white"/>
<path d="M1026.98 403.087L1078.52 364.59C1031.41 325.935 972.61 304.893 911.996 305V367.037C953.041 366.986 993.133 379.556 1026.98 403.087Z" fill="white"/>
<path d="M1177.14 573.61C1177.17 557.472 1175.78 541.361 1172.97 525.474L1115.92 568.084C1115.92 569.92 1115.92 571.754 1115.92 573.61C1115.94 602.473 1109.97 631.016 1098.4 657.39C1086.83 683.765 1069.92 707.381 1048.77 726.709L1089.92 772.8C1117.42 747.643 1139.39 716.912 1154.42 682.598C1169.44 648.283 1177.18 611.151 1177.14 573.61Z" fill="white"/>
<path d="M912.079 780.182C883.596 780.192 855.429 774.14 829.4 762.418C803.372 750.696 780.063 733.564 760.983 712.134L715.523 753.815C740.344 781.685 770.669 803.957 804.53 819.187C838.391 834.415 875.032 842.263 912.079 842.218V780.182Z" fill="white"/>
<path d="M775.387 420.51L734.256 374.42C706.751 399.572 684.769 430.302 669.737 464.617C654.706 498.931 646.959 536.065 647 573.609H708.238C708.225 544.748 714.196 516.204 725.764 489.83C737.331 463.457 754.237 439.84 775.387 420.51Z" fill="white"/>
<path d="M2176.67 458.613L2252.52 402.629H1998.69V739.044H2252.52V683.06H2071.11V596.887H2225.86V540.903H2071.11V458.613H2176.67Z" fill="white"/>
<path d="M1827.89 533.685H1739.77V458.591H1880.41L1956.21 402.437H1667.38V738.851H1818.57C1903.33 738.851 1951.98 700.359 1951.98 633.23C1951.98 569.01 1907.92 533.685 1827.89 533.685ZM1815.31 682.85H1739.77V589.634H1815.31C1861.16 589.634 1882.65 605.255 1882.65 636.242C1882.65 667.228 1859.78 682.85 1815.31 682.85Z" fill="white"/>
<path d="M2439.1 402.581H2300.93V738.994H2373.35V643.694H2439.1C2527.26 643.694 2581.79 597.219 2581.79 522.958C2581.79 448.7 2527.26 402.581 2439.1 402.581ZM2437.57 587.668H2373.35V458.608H2437.57C2483.94 458.608 2509.53 481.539 2509.53 523.163C2509.53 564.787 2483.94 587.668 2437.57 587.668Z" fill="white"/>
<path d="M1558.7 659.603C1539.99 669.753 1519.03 675.009 1497.76 674.884C1434.09 674.884 1387.9 629.341 1387.9 566.628C1387.9 503.914 1434.09 458.273 1497.76 458.273C1520.72 457.882 1543.21 464.858 1561.93 478.182L1612.59 440.802L1609.16 438.363C1579.61 412.332 1540.13 398.545 1494.93 398.545C1445.91 398.545 1401.46 415.07 1369.72 445.132C1353.68 460.611 1340.99 479.238 1332.44 499.851C1323.9 520.463 1319.68 542.618 1320.06 564.935C1319.72 587.479 1323.92 609.86 1332.4 630.744C1340.88 651.627 1353.47 670.582 1369.43 686.481C1401.31 717.738 1445.66 734.959 1494.34 734.959C1545.19 734.959 1589.64 717.189 1619.74 684.839L1574.4 650.993L1558.7 659.603Z" fill="white"/>
</svg>
