<svg width="3228" height="1152" viewBox="0 0 3228 1152" fill="none" xmlns="http://www.w3.org/2000/svg">
<g clip-path="url(#clip0)">
<path d="M2367.47 437.702C2353.39 420.983 2328.35 418.927 2311.89 432.971C2307.88 436.336 2304.57 440.464 2302.15 445.118C2299.74 449.771 2298.27 454.857 2297.83 460.083C2297.39 465.308 2297.99 470.569 2299.59 475.561C2301.2 480.553 2303.77 485.177 2307.17 489.167C2327.35 513.126 2338.48 543.425 2338.63 574.771C2338.52 648.294 2279.01 707.893 2205.97 707.644C2188.52 707.809 2171.22 704.453 2155.1 697.775C2138.97 691.097 2124.36 681.234 2112.12 668.775C2087.04 643.877 2073.25 610.522 2073.32 574.771C2073.26 557.386 2076.65 540.163 2083.31 524.11C2089.98 508.057 2099.77 493.497 2112.12 481.283C2124.35 468.822 2138.97 458.959 2155.09 452.282C2171.22 445.606 2188.52 442.253 2205.97 442.423C2219.1 442.174 2232.13 444.101 2244.78 447.67C2265.58 454.319 2287.74 442.488 2294.07 421.407C2295.6 416.442 2296.14 411.222 2295.65 406.047C2295.16 400.872 2293.66 395.845 2291.22 391.257C2288.78 386.668 2285.46 382.608 2281.45 379.31C2277.44 376.013 2272.82 373.543 2267.85 372.044C2247.8 365.843 2226.95 362.658 2205.97 362.592C2089 362.703 1993.91 457.952 1994.14 574.771C1993.91 631.741 2015.96 685.06 2056.02 724.98C2096.04 765.269 2149.27 787.355 2205.97 787.475C2262.51 787.345 2315.74 765.269 2355.93 724.98C2395.81 685.06 2417.86 631.741 2417.8 574.771C2417.81 524.543 2399.97 475.953 2367.47 437.702Z" fill="white"/>
<path d="M1977.89 630.967C1959.34 619.338 1934.92 625.277 1923.36 644.098C1899.21 684.018 1856.82 707.883 1810.1 707.653C1774.72 707.883 1741.42 694.07 1716.25 668.784C1691.31 643.886 1677.51 610.522 1677.45 574.78C1677.44 557.403 1680.86 540.197 1687.52 524.153C1694.18 508.108 1703.95 493.541 1716.25 481.292C1741.41 455.997 1774.72 442.183 1810.1 442.432C1854.28 442.183 1895.41 464.094 1920.21 500.722C1923.11 505.064 1926.84 508.785 1931.19 511.668C1935.54 514.552 1940.42 516.54 1945.54 517.518C1950.67 518.495 1955.93 518.442 1961.04 517.362C1966.14 516.281 1970.98 514.195 1975.27 511.225C1993.38 499.172 1998.15 474.477 1985.75 456.08C1966.33 427.305 1940.16 403.738 1909.54 387.441C1878.91 371.145 1844.77 362.616 1810.09 362.601C1693.26 362.703 1598.18 457.952 1598.28 574.771C1598.18 631.741 1620.23 685.06 1660.15 724.98C1700.31 765.26 1753.54 787.355 1810.11 787.475C1884.74 787.345 1952.45 749.224 1991.54 685.586C2002.68 666.617 1996.76 642.171 1977.89 630.967Z" fill="white"/>
<path d="M1579.92 630.967C1575.49 628.203 1570.56 626.349 1565.41 625.513C1560.25 624.677 1554.99 624.876 1549.91 626.098C1544.84 627.32 1540.06 629.541 1535.85 632.631C1531.64 635.721 1528.08 639.619 1525.39 644.098C1501 684.018 1458.61 707.893 1412.13 707.653C1376.5 707.893 1343.19 694.07 1318.28 668.784C1293.1 643.886 1279.29 610.532 1279.48 574.78C1279.36 557.387 1282.73 540.147 1289.4 524.086C1296.06 508.026 1305.89 493.472 1318.28 481.292C1343.2 455.997 1376.51 442.183 1412.13 442.432C1433.78 442.332 1455.12 447.603 1474.24 457.774C1493.37 467.945 1509.68 482.7 1521.72 500.722C1534.2 518.971 1558.86 523.748 1576.77 511.225C1595.17 499.172 1599.95 474.486 1587.78 456.08C1568.32 427.347 1542.15 403.811 1511.53 387.518C1480.92 371.225 1446.8 362.668 1412.13 362.592C1295.05 362.703 1199.95 457.952 1199.78 574.771C1199.95 631.741 1222 685.06 1262.17 724.98C1302.08 765.269 1355.3 787.355 1412.13 787.475C1486.5 787.345 1554.23 749.224 1593.03 685.586C1604.47 666.617 1598.54 642.171 1579.92 630.967Z" fill="white"/>
<path d="M1185.62 630.967C1167.03 619.338 1142.62 625.277 1131.09 644.098C1106.9 684.018 1064.52 707.883 1017.83 707.653C995.694 707.869 973.864 702.449 954.39 691.902L1168.31 507.02C1184.18 493.114 1186.7 469.488 1174.08 452.926C1153.23 425.116 1125.87 402.861 1094.42 388.117C1062.97 373.372 1028.39 366.59 993.71 368.365C969.783 369.776 946.481 374.995 924.496 384.124C904.187 392.341 894.474 415.533 902.999 435.599C904.9 440.448 907.743 444.871 911.364 448.611C914.985 452.351 919.311 455.333 924.092 457.385C928.873 459.437 934.013 460.518 939.214 460.565C944.415 460.611 949.573 459.623 954.39 457.657C968.255 451.974 982.956 448.601 997.908 447.67C1029.36 446.222 1059.85 455.877 1084.42 474.459L899.335 634.646C889.982 616.08 885.131 595.566 885.175 574.771C885.196 550.485 891.909 526.677 904.573 505.969C915.861 487.295 909.932 462.849 891.463 451.349C872.507 440.016 848.101 445.946 836.934 464.481C816.601 497.655 805.889 535.844 806 574.771C805.862 631.741 827.911 685.06 867.867 724.98C907.989 765.26 961.23 787.355 1017.83 787.475C1092.43 787.345 1160.14 749.224 1198.73 685.586C1210.38 666.617 1204.45 642.171 1185.62 630.967Z" fill="white"/>
</g>
<defs>
<clipPath id="clip0">
<rect width="1616" height="425" fill="white" transform="translate(806 363)"/>
</clipPath>
</defs>
</svg>
