<svg width="3228" height="1152" viewBox="0 0 3228 1152" fill="none" xmlns="http://www.w3.org/2000/svg">
<g clip-path="url(#clip0)">
<path fill-rule="evenodd" clip-rule="evenodd" d="M631.558 695.705C630.457 686.37 629.15 674.698 628.358 665.445C625.495 633.359 624.296 601.145 624.766 568.934C624.766 541.722 626.062 511.565 627.369 488.233C628.121 474.941 628.992 461.657 629.984 448.381L630.22 445.293H622.728C616.465 445.024 610.223 446.181 604.473 448.677C598.722 451.173 593.615 454.943 589.535 459.702C585.696 464.849 578.45 477.261 569.022 494.099C542.911 540.785 500.805 620.921 477.009 665.806L477.339 610.783C477.73 546.415 483.761 464.519 485.356 445.139L485.449 444.11L484.852 443.245C484.267 442.465 483.574 441.772 482.794 441.187C481.119 439.872 479.056 439.149 476.927 439.128C471.15 438.935 465.402 440.01 460.085 442.278C454.768 444.545 450.013 447.949 446.153 452.251C442.102 460.024 439.983 468.66 439.978 477.426C438.815 489.776 438.104 506.419 437.106 527.93C436.303 548.7 435.5 602.034 435.5 629.381C435.5 665.404 435.696 691.773 437.065 709.342C437.385 716.123 438.441 722.849 440.214 729.402C440.809 731.503 441.809 733.468 443.158 735.186C443.786 735.974 444.58 736.613 445.484 737.058C446.388 737.502 447.379 737.742 448.386 737.759C454 737.164 459.318 734.946 463.691 731.378C469.095 727.55 473.613 722.604 476.937 716.876V716.814C477.339 716.114 508.761 661.637 527.956 626.654C546.421 593.06 571.637 543.873 582.505 522.557V610.762C581.871 643.273 583.677 675.785 587.909 708.025C588.865 715.117 590.591 722.085 593.055 728.805C593.779 730.723 594.8 732.515 596.081 734.116C596.614 734.82 597.294 735.4 598.075 735.814C598.855 736.229 599.717 736.467 600.599 736.514C606.73 736.097 612.662 734.163 617.859 730.884C624.843 726.985 630.313 720.852 633.39 713.469L633.658 712.78L633.565 712.028C633.565 712.028 632.67 705.05 631.558 695.705ZM880.632 695.705C879.531 686.37 878.223 674.698 877.421 665.445C874.549 633.359 873.347 601.145 873.818 568.934C873.818 541.742 875.424 511.596 877.03 488.274C877.832 476.602 878.635 466.66 879.232 459.599C879.829 452.539 880.261 448.443 880.261 448.432L880.57 445.252H871.534L871.266 445.303C863.195 446.328 855.755 450.196 850.28 456.213C842.375 464.993 835.644 480.699 834.018 509.599C833.287 521.652 833.143 535.577 833.143 548.916V571.672C817.492 577.052 801.117 580.029 784.574 580.503C770.535 580.503 757.371 577.22 745.206 577.199C741.861 577.073 738.513 577.371 735.243 578.084C735.531 526.098 741.676 480.719 744.815 443.842L744.99 441.783L743.158 440.939C740.507 439.77 737.655 439.12 734.759 439.025C728.812 438.93 722.892 439.863 717.262 441.783C711.649 443.621 706.873 447.398 703.79 452.436C700.345 460.4 698.425 468.939 698.129 477.611C696.863 489.838 695.957 506.306 694.949 527.827C694.146 548.597 693.343 601.932 693.343 629.278C693.343 665.301 693.539 691.67 694.907 709.239C695.232 716.019 696.288 722.745 698.057 729.299C698.655 731.399 699.655 733.363 701.001 735.083C701.629 735.871 702.423 736.51 703.327 736.955C704.231 737.4 705.222 737.639 706.229 737.656C712.142 737.003 717.786 734.834 722.614 731.357C728.587 727.715 733.602 722.697 737.24 716.721L737.641 715.98L737.579 715.126C737.579 715.126 737.363 711.761 737.024 705.863C735.994 688.706 734.101 650.172 733.936 611.956C737.259 612.291 740.601 612.411 743.94 612.316C760.355 612.08 776.668 609.685 792.458 605.194C806.217 601.758 819.825 597.743 833.246 593.163L835.099 640.919V640.98C835.648 666.609 837.586 692.188 840.904 717.607C841.504 722.365 842.697 727.029 844.454 731.491C845.005 732.802 845.813 733.988 846.832 734.98C847.798 735.886 849.069 736.396 850.393 736.411C856.446 736.066 862.307 734.162 867.406 730.884C874.211 726.898 879.516 720.787 882.505 713.49L882.773 712.8L882.67 712.049C882.67 712.049 881.774 705.05 880.673 695.705H880.632ZM1149.52 706.666C1145.94 705.997 1142.3 705.728 1138.67 705.863H1138.59C1129.96 681.594 1113.13 631.357 1095.14 566.917C1084.33 527.806 1076.32 484.435 1070.64 463.511V463.428C1069.55 459.172 1068.14 455.008 1066.4 450.975C1065.54 449.09 1064.35 447.38 1062.87 445.931C1061.3 444.433 1059.23 443.589 1057.06 443.574C1051.47 443.748 1045.93 444.693 1040.59 446.384C1035.36 447.784 1030.43 450.124 1026.04 453.29C1022.84 456.164 1020.34 459.744 1018.75 463.747C1016.98 467.91 1015.48 472.188 1014.28 476.551C1012.22 482.912 1005.01 508.457 994.177 543.183C986.972 566.65 977.349 592.277 970.504 614.756C961.529 642.874 948.448 682.139 943.219 707.067C938.203 706.998 933.202 707.642 928.368 708.982C925.792 709.722 923.443 711.094 921.534 712.975C919.568 715.055 918.496 717.823 918.549 720.684C919.249 738.571 921.136 756.392 924.199 774.029C924.906 780.656 926.23 787.203 928.151 793.584C928.852 795.883 929.942 798.045 931.373 799.976C932.018 800.894 932.866 801.65 933.852 802.185C934.837 802.721 935.933 803.022 937.054 803.064C939.074 802.906 941.036 802.316 942.808 801.334C946.435 799.534 949.723 797.117 952.523 794.192C955.776 791.093 957.727 786.872 957.979 782.386C957.979 774.986 956.517 757.345 956.044 735.227C972.017 735.227 971.019 735.639 1023.84 735.639C1047.76 735.639 1099.51 734.177 1118.15 732.952C1117.59 745.141 1115.89 757.249 1113.06 769.12C1111.77 774.996 1110.47 780.256 1109.49 784.352C1108.99 786.411 1108.58 788.171 1108.28 789.601C1108 790.76 1107.83 791.942 1107.77 793.131C1107.73 794.737 1108.03 796.333 1108.68 797.804C1109.12 798.738 1109.75 799.567 1110.54 800.235C1111.32 800.902 1112.24 801.393 1113.24 801.674C1114.87 802.107 1116.55 802.298 1118.24 802.24C1123.9 802.252 1129.4 800.4 1133.89 796.97C1139.31 792.552 1143.38 786.71 1145.65 780.101C1153.26 761.125 1157.93 741.1 1159.5 720.715C1159.61 717.894 1159.02 715.09 1157.78 712.553C1156.93 711.016 1155.74 709.688 1154.31 708.663C1152.89 707.638 1151.25 706.942 1149.52 706.625V706.666ZM1036.65 496.765C1044.85 542.015 1055.44 586.799 1068.38 630.925C1078.07 664.704 1085.31 689.797 1091.53 706.059C1083.07 706.573 1073.88 706.707 1062.71 706.707C1054.12 706.707 1044.38 706.635 1032.96 706.635C1011.81 706.635 995.998 705.904 978.748 705.122C982.803 675.717 995.329 632.047 1001.57 607.242C1008.3 580.935 1025.62 526.839 1036.65 496.765ZM1398.57 695.694C1397.47 686.359 1396.16 674.688 1395.36 665.435C1392.49 633.349 1391.29 601.135 1391.76 568.924C1391.76 541.711 1393.06 511.555 1394.37 488.222C1395.02 476.541 1395.67 466.609 1396.16 459.538C1396.66 452.467 1396.98 448.391 1396.98 448.371L1397.22 445.283H1389.72C1383.46 445.015 1377.22 446.173 1371.47 448.669C1365.72 451.165 1360.61 454.934 1356.53 459.692L1356.59 459.61L1356.53 459.692C1352.69 464.838 1345.43 477.251 1336.01 494.089C1309.9 540.775 1267.8 620.911 1243.99 665.795L1244.32 610.773C1244.72 546.405 1250.74 464.509 1252.35 445.128L1252.43 444.099L1251.83 443.235C1251.25 442.449 1250.56 441.755 1249.78 441.176C1248.1 439.862 1246.04 439.138 1243.92 439.118C1238.14 438.925 1232.39 440 1227.07 442.267C1221.75 444.534 1217 447.938 1213.13 452.24C1209.08 460.014 1206.97 468.649 1206.96 477.415C1205.79 489.766 1205.09 506.409 1204.09 527.92C1203.27 548.69 1202.47 602.024 1202.47 629.371C1202.47 665.394 1202.67 691.763 1204.04 709.332C1204.36 716.112 1205.42 722.838 1207.2 729.391C1207.79 731.495 1208.79 733.461 1210.14 735.176C1210.77 735.963 1211.56 736.602 1212.46 737.047C1213.36 737.492 1214.35 737.732 1215.36 737.749C1220.97 737.157 1226.29 734.939 1230.66 731.367C1236.07 727.543 1240.59 722.596 1243.92 716.866V716.804C1244.32 716.104 1275.74 661.627 1294.93 626.643C1313.45 593.049 1338.61 543.862 1349.48 522.547V610.752C1348.85 643.262 1350.66 675.774 1354.89 708.014C1355.84 715.108 1357.57 722.076 1360.04 728.794C1360.77 730.71 1361.79 732.502 1363.06 734.105C1363.6 734.809 1364.28 735.388 1365.06 735.802C1365.84 736.217 1366.71 736.456 1367.59 736.503C1373.73 736.093 1379.67 734.162 1384.87 730.884C1391.86 726.985 1397.33 720.852 1400.4 713.469L1400.67 712.769L1400.58 712.028C1400.58 712.028 1399.67 705.05 1398.57 695.705V695.694ZM2051.37 566.876C2040.52 527.559 2027.7 482.86 2022.05 462.234C2020.97 457.977 2019.55 453.812 2017.81 449.781C2016.96 447.896 2015.76 446.186 2014.29 444.737C2012.72 443.242 2010.65 442.4 2008.48 442.38C1998.42 443.107 1988.82 446.932 1981.02 453.331C1977.7 456.418 1975.06 460.161 1973.27 464.324C1971.56 467.902 1970.09 471.587 1968.86 475.357C1967.18 480.503 1962.41 498.967 1953.59 527.467C1945.17 553.455 1932.32 589.025 1924.25 615.198C1918.42 633.817 1911.19 657.211 1905.39 678.064C1902.73 687.487 1900.32 696.984 1898.19 706.542C1896.58 712.951 1895.59 719.5 1895.24 726.098C1895.14 728.278 1895.82 730.42 1897.16 732.143C1898.5 733.867 1900.41 735.058 1902.54 735.505C1905.28 736.206 1908.11 736.525 1910.93 736.452C1914.85 736.299 1918.72 735.506 1922.39 734.105C1926.19 732.982 1929.58 730.775 1932.14 727.755L1932.66 727.004V726.087C1934.03 706.821 1937.08 687.711 1941.78 668.976C1946.83 646.024 1952.85 622.372 1956.67 607.222C1963.59 580.205 1977.54 530.493 1987.78 502.055C1998.74 538.428 2008.43 582.242 2022.29 630.884C2031.12 661.678 2038.14 687.934 2044.37 706.645C2046.72 714.272 2049.72 721.685 2053.33 728.805C2054.55 731.167 2056.11 733.337 2057.97 735.248C2059.53 736.925 2061.69 737.926 2063.98 738.037C2071.45 737.909 2078.75 735.776 2085.11 731.861C2090.48 728.753 2095.06 724.441 2098.49 719.264L2099.24 718.049L2098.75 716.711C2092.3 699.513 2072.63 643.307 2051.37 566.876ZM2287.99 617.226C2274.77 575.985 2262.32 527.59 2258.33 509.527C2254.12 491.176 2250.91 474.739 2247.54 462.697C2246.28 457.634 2244.45 452.728 2242.1 448.072C2241.19 446.349 2239.98 444.798 2238.54 443.492C2237.14 442.244 2235.34 441.539 2233.46 441.506C2230.89 441.68 2228.36 442.239 2225.96 443.163C2221.08 444.892 2216.32 446.956 2211.72 449.338C2207.56 451.375 2203.6 453.82 2199.92 456.635L2199.04 457.366L2198.91 458.519C2198 467.35 2196.14 476.059 2193.38 484.497C2185.33 511.812 2184.55 515.075 2166.47 573.813C2129.91 691.701 2124.67 709.929 2118.28 728.856L2118.13 729.309V729.854C2117.89 732.72 2118.52 735.591 2119.95 738.088C2120.78 739.284 2121.95 740.204 2123.31 740.733C2124.74 741.268 2126.26 741.523 2127.79 741.485C2130.92 741.221 2133.93 740.158 2136.53 738.397C2139.16 736.843 2141.55 734.9 2143.6 732.633C2144.74 731.149 2145.72 729.54 2146.5 727.837C2149.98 720.787 2154.66 708.097 2159.24 695.231C2163.45 683.395 2167.54 671.559 2170.32 664.128C2185.98 664.522 2201.64 663.402 2217.09 660.783C2230.01 659.186 2241.96 653.107 2250.87 643.605C2254.2 655.349 2258.72 670.53 2269.32 701.499C2272.4 711.441 2276.23 721.137 2280.76 730.503C2282.02 733.003 2283.73 735.248 2285.81 737.121C2287.56 738.615 2289.79 739.433 2292.09 739.426C2299.72 739.256 2307.01 736.204 2312.49 730.884C2317.56 726.149 2321.62 720.439 2324.43 714.097L2325.01 712.79L2324.34 711.524C2309.48 681.219 2297.32 649.665 2287.99 617.226ZM2216.46 520.365L2246.66 629.731C2245.06 629.464 2243.47 629.251 2241.86 629.093C2236.53 628.631 2231.18 628.418 2225.83 628.455C2211.19 628.674 2196.59 630.13 2182.2 632.808L2216.46 520.365ZM2423.55 422.65C2428.86 426.264 2434.89 428.67 2441.23 429.7C2449.03 431.26 2456.96 432.025 2464.9 431.985C2485.05 431.43 2504.58 424.95 2521.06 413.356C2527.34 409.162 2533.14 404.273 2538.33 398.782C2540.15 396.847 2541.8 394.749 2543.24 392.514C2544.41 390.858 2545.12 388.918 2545.3 386.895C2545.34 384.64 2544.91 382.402 2544.02 380.328C2543.53 379.21 2542.77 378.225 2541.82 377.457C2540.75 376.602 2539.41 376.141 2538.04 376.15C2534.33 376.33 2530.8 377.805 2528.06 380.318C2523.46 384.645 2518.51 388.583 2513.26 392.092C2504.65 396.925 2494.88 399.28 2485.02 398.895C2477.73 397.932 2470.82 395.095 2464.97 390.662C2461.56 388.511 2458.29 386.329 2455.26 384.62C2452.62 382.886 2449.59 381.826 2446.44 381.532C2443.36 381.761 2440.4 382.806 2437.87 384.558C2432.89 387.728 2428.56 391.814 2425.11 396.6C2421.24 401.53 2419 407.539 2418.69 413.799C2418.77 415.55 2419.24 417.261 2420.08 418.798C2420.93 420.335 2422.11 421.657 2423.55 422.66V422.65ZM2561.32 695.694C2560.22 686.359 2558.91 674.688 2558.11 665.435C2555.24 633.349 2554.04 601.135 2554.51 568.924C2554.51 541.711 2555.81 511.555 2557.11 488.222C2557.77 476.541 2558.42 466.609 2558.9 459.538C2559.39 452.467 2559.72 448.391 2559.72 448.371L2559.96 445.283H2552.47C2546.21 445.013 2539.97 446.17 2534.22 448.666C2528.47 451.163 2523.36 454.933 2519.28 459.692C2515.44 464.838 2508.18 477.251 2498.76 494.089C2472.65 540.775 2430.54 620.911 2406.74 665.795L2407.07 610.773C2407.47 546.405 2413.49 464.509 2415.09 445.128L2415.18 444.099L2414.59 443.235C2414 442.452 2413.31 441.759 2412.53 441.176C2410.85 439.862 2408.79 439.138 2406.66 439.118C2400.88 438.925 2395.13 440 2389.82 442.267C2384.5 444.534 2379.75 447.939 2375.89 452.24C2371.84 460.015 2369.72 468.65 2369.71 477.415C2368.55 489.766 2367.85 506.409 2366.84 527.92C2366.04 548.69 2365.23 602.024 2365.23 629.371C2365.23 665.394 2365.43 691.763 2366.8 709.332C2367.12 716.113 2368.17 722.839 2369.95 729.391C2370.55 731.491 2371.55 733.456 2372.89 735.176C2373.52 735.963 2374.31 736.603 2375.22 737.047C2376.12 737.492 2377.11 737.732 2378.12 737.749C2383.73 737.153 2389.05 734.936 2393.42 731.367C2398.83 727.539 2403.35 722.594 2406.67 716.866V716.804C2407.08 716.104 2438.5 661.627 2457.69 626.643C2476.16 593.049 2501.37 543.862 2512.24 522.547V610.752C2511.6 643.263 2513.41 675.775 2517.65 708.014C2518.6 715.108 2520.33 722.076 2522.8 728.794C2523.52 730.712 2524.54 732.504 2525.82 734.105C2526.36 734.81 2527.04 735.39 2527.82 735.804C2528.6 736.218 2529.46 736.457 2530.34 736.503C2536.48 736.092 2542.41 734.161 2547.61 730.884C2554.6 726.985 2560.07 720.852 2563.14 713.469L2563.41 712.769L2563.32 712.028C2563.32 712.028 2562.42 705.05 2561.32 695.705V695.694ZM2788.78 441.753C2786.65 440.65 2784.27 440.111 2781.88 440.188L2780.11 440.26L2744.08 441.907C2731.24 442.319 2677.83 443.965 2623.25 443.965C2618.52 443.864 2613.8 444.157 2609.12 444.84C2606.64 445.216 2604.23 445.988 2602 447.125H2601.94C2599.09 448.797 2596.8 451.271 2595.36 454.237C2593.49 457.526 2592.45 461.222 2592.34 465.003C2592.17 467.457 2592.68 469.913 2593.82 472.094C2594.69 473.557 2596 474.716 2597.55 475.419C2599.46 476.248 2601.53 476.645 2603.61 476.582C2613.91 476.582 2630 474.914 2634.79 474.523L2674.59 471.137C2673.23 477.198 2672.33 483.353 2671.9 489.55C2671.51 494.068 2670.71 518.811 2669.99 546.868C2669.27 574.925 2668.64 605.946 2668.64 622.64V628.815C2668.84 636.73 2668.89 646.775 2668.89 657.52V690.528C2668.89 701.314 2668.89 711.431 2669.14 719.5C2669.25 723.535 2669.38 727.065 2669.58 729.927C2669.67 732.157 2669.94 734.376 2670.38 736.565V736.689C2670.88 739.029 2672.16 741.131 2674 742.658C2676.24 744.092 2678.89 744.756 2681.55 744.552C2684 744.401 2686.4 743.783 2688.63 742.73C2692.87 740.855 2696.88 738.477 2700.56 735.649C2704.12 733.135 2707.11 729.885 2709.32 726.118C2709.32 726.091 2709.32 726.063 2709.32 726.036V725.974C2712.02 719.791 2713.16 713.034 2712.62 706.306C2712.62 703.218 2712.54 699.863 2712.43 696.065C2711.71 674.997 2710.38 648.72 2710.38 628.403C2710.38 625.954 2710.38 623.597 2710.44 621.353C2710.84 598.525 2710.44 575.377 2711.23 551.901C2712.03 525.264 2713.24 504.206 2714.23 489.818C2714.74 482.613 2715.19 477.096 2715.51 473.35L2715.8 470.128C2725.84 469.511 2738.82 467.648 2752.95 465.734L2752.58 462.862L2752.96 465.734C2763.02 464.692 2772.88 462.303 2782.3 458.632C2785 457.528 2787.47 455.921 2789.57 453.898C2791.28 452.278 2792.3 450.063 2792.42 447.712C2792.4 446.48 2792.05 445.276 2791.4 444.228C2790.75 443.18 2789.83 442.328 2788.74 441.763L2788.78 441.753Z" fill="white"/>
<path d="M1519.67 410.979C1529.38 412.037 1538.61 415.744 1546.35 421.694C1549.1 423.957 1552.34 425.55 1555.81 426.346C1556.31 426.352 1556.81 426.246 1557.27 426.034C1557.73 425.822 1558.13 425.51 1558.45 425.121C1559.21 424.048 1559.57 422.746 1559.48 421.436C1559.48 417.896 1559.11 414.119 1558.71 410.115C1557.28 395.953 1555.8 381.296 1569.64 371.436C1575.13 367.153 1581.83 364.701 1588.79 364.427C1605.66 364.427 1617.76 381.307 1625.74 392.484C1627.61 396.806 1631.05 400.262 1635.36 402.159C1636.02 402.131 1636.67 401.912 1637.22 401.529C1637.76 401.146 1638.19 400.615 1638.44 399.997C1644.62 388.172 1651.42 382.151 1658.7 382.151C1663.39 383.063 1667.82 385.02 1671.66 387.878C1675.49 390.736 1678.63 394.421 1680.85 398.66C1699.7 426.449 1687.36 471.066 1683.31 485.743C1682.63 486.9 1682.2 488.184 1682.04 489.516C1681.88 490.848 1682 492.198 1682.38 493.482L1683.11 494.635H1684.23L1685.34 494.47L1689.38 489.962L1689.51 489.664C1689.85 489.046 1722.59 426.335 1689.4 386.154C1685.97 381.325 1681.51 377.308 1676.36 374.39C1671.2 371.471 1665.46 369.722 1659.55 369.265C1654.85 369.476 1650.25 370.687 1646.05 372.817C1641.85 374.946 1638.15 377.946 1635.2 381.615C1629.84 373.886 1611.16 350.07 1585.8 350.07C1581.27 350.088 1576.78 350.842 1572.5 352.303C1546.43 361.165 1543.98 393.38 1543.99 405.679C1536.75 401.459 1528.57 399.134 1520.2 398.917C1514.57 398.947 1509.03 400.311 1504.03 402.899C1499.03 405.486 1494.72 409.222 1491.45 413.799C1483.95 422.957 1479.97 434.491 1480.23 446.323C1480.91 458.995 1485.13 471.221 1492.43 481.605H1491.77C1482.78 481.605 1461.2 486.093 1454.89 527.447C1452.58 537.316 1453.93 547.688 1458.67 556.643C1463.42 565.598 1471.25 572.532 1480.71 576.16C1473.57 582.31 1468.43 590.458 1465.97 599.555C1463.28 610.969 1464.6 622.959 1469.69 633.519C1485.71 670.047 1509.58 670.458 1517.43 670.572C1518.04 670.572 1519.91 670.654 1520.37 670.654C1524.43 670.471 1528.37 669.188 1531.76 666.942C1535.14 664.696 1537.86 661.571 1539.61 657.902C1540.35 656.811 1541.02 655.771 1541.67 654.896L1542.8 653.353L1542.21 651.737L1541.43 650.028H1539.84C1538.73 650.146 1537.63 650.405 1536.58 650.8C1530.41 652.826 1523.97 653.922 1517.47 654.052C1509.78 654.145 1502.24 651.891 1495.87 647.589C1489.5 643.288 1484.59 637.144 1481.8 629.979C1475.93 620.129 1474 608.429 1476.39 597.218C1478.6 592.208 1481.92 587.767 1486.11 584.23C1490.29 580.694 1495.22 578.156 1500.53 576.809C1504.51 575.275 1506.53 574.503 1506.34 571.776C1506.15 568.853 1503.5 568.359 1498.64 567.484C1490.09 565.909 1462.34 558.756 1465.59 532.572C1468.89 505.699 1480.79 492.052 1500.9 492.052C1503.9 492.089 1506.89 492.327 1509.85 492.762C1510.92 492.927 1511.99 493.03 1513.07 493.071C1513.74 493.135 1514.41 492.951 1514.95 492.552C1515.5 492.153 1515.87 491.568 1516.01 490.909C1516.11 489.857 1515.89 488.799 1515.38 487.873C1514.87 486.946 1514.1 486.193 1513.16 485.712C1496.44 471.992 1487.58 444.151 1495.32 429.516C1497.16 424.406 1500.43 419.937 1504.75 416.648C1509.08 413.359 1514.26 411.39 1519.67 410.979ZM1865.49 565.95C1868.8 559.046 1870.13 551.363 1869.35 543.748C1868.57 536.133 1865.7 528.882 1861.06 522.795C1858.16 517.95 1854.03 513.96 1849.08 511.233C1844.14 508.506 1838.56 507.14 1832.92 507.274C1826.21 507.342 1819.58 508.767 1813.43 511.463C1812.15 511.915 1810.91 512.49 1809.74 513.182C1804.53 506.842 1799.12 500.481 1793.93 494.203C1794.84 493.831 1795.71 493.369 1796.52 492.824C1812.09 481.584 1792.13 442.453 1778.94 429.701C1787.08 427.524 1795.74 428.533 1803.15 432.521C1805.63 433.406 1808.98 434.703 1808.94 431.029C1808.55 425.17 1806.52 419.538 1803.09 414.771C1799.66 410.005 1794.97 406.295 1789.53 404.063C1782.47 387.245 1751.17 373.032 1732.82 387.966C1709.97 406.585 1718.53 430.164 1729.12 456.615C1735.62 472.857 1747.58 491.774 1753.08 508.375C1757.02 520.253 1772.49 569.872 1742.16 564.705C1741.19 563.488 1739.98 562.485 1738.61 561.759C1737.23 561.033 1735.72 560.599 1734.17 560.485C1732.57 560.595 1731.01 561.056 1729.6 561.837C1728.2 562.618 1726.98 563.699 1726.04 565.004C1723.9 568.594 1722.74 572.689 1722.7 576.871C1721.34 573.595 1719.2 570.698 1716.48 568.432C1713.75 566.165 1710.51 564.596 1707.04 563.861C1705.24 563.881 1703.46 564.363 1701.9 565.261C1698.06 567.462 1694.79 570.52 1692.33 574.197C1689.87 577.873 1688.3 582.068 1687.73 586.453C1683.01 576.84 1674.19 563.11 1662.17 563.11C1661.37 563.118 1660.58 563.18 1659.79 563.295C1645.79 565.446 1634.06 581.821 1629.38 589.324C1626.56 582.486 1622.89 576.027 1618.47 570.098C1621.84 562.647 1636.79 532.459 1661.69 519.81C1676.42 512.795 1692.6 509.357 1708.91 509.775C1719.15 509.801 1729.36 510.779 1739.42 512.698C1742.8 514.063 1746.42 514.698 1750.06 514.561C1753.57 512.873 1750.49 509.929 1748.15 508.386C1744.24 506.098 1740.03 504.366 1735.64 503.239C1722.99 499.077 1709.78 496.89 1696.46 496.755C1679.7 496.473 1663.2 501.021 1648.95 509.857C1624.95 525.069 1616.69 554.639 1614.34 565.796C1612.38 563.95 1609.83 562.857 1607.13 562.708C1604.98 562.953 1602.94 563.788 1601.23 565.121C1599.52 566.454 1598.22 568.234 1597.46 570.263C1593.05 576.653 1590.86 584.315 1591.22 592.072C1593.03 597.373 1595.22 594.131 1597.04 590.672C1598.81 586.203 1601.83 582.337 1605.74 579.536C1606.12 579.334 1606.55 579.231 1606.98 579.238C1612.63 579.238 1621.01 594.82 1625.39 605.504C1623.51 605.441 1621.62 605.414 1619.73 605.421C1614.11 605.421 1608.79 605.679 1603.48 605.915L1599.61 606.101C1597.33 605.918 1595.03 606.317 1592.94 607.262C1590.85 608.207 1589.03 609.667 1587.66 611.504C1585.58 616.167 1585.35 621.449 1587.02 626.274C1587.95 628.979 1588.13 631.886 1587.53 634.682C1586.93 635.394 1586.19 635.974 1585.36 636.385C1584.53 636.796 1583.62 637.029 1582.69 637.07C1581.22 637.314 1579.73 637.452 1578.23 637.482C1577.27 637.643 1576.29 637.562 1575.37 637.248C1574.45 636.933 1573.62 636.395 1572.95 635.681C1572.53 633.807 1572.75 631.845 1573.58 630.113C1575.71 624.359 1575.48 620.592 1568.69 624.606C1564.67 626.642 1561.13 629.518 1558.32 633.042C1555.51 636.565 1553.48 640.652 1552.39 645.026C1551.15 654.199 1553.54 663.494 1559.05 670.932C1562.88 677.517 1568.31 683.023 1574.85 686.936C1567.68 689.966 1561.58 695.086 1557.36 701.629C1553.14 708.171 1550.98 715.834 1551.18 723.618C1551.78 748.124 1563.53 760.557 1586.17 760.557H1590.28L1591.44 754.042L1589.81 753.147C1587.68 750.85 1586.03 748.143 1584.98 745.189C1583.93 742.235 1583.49 739.098 1583.69 735.969C1583.7 735.566 1583.81 735.172 1583.99 734.813C1584.17 734.454 1584.43 734.139 1584.74 733.89C1585.06 733.641 1585.43 733.464 1585.82 733.372C1586.21 733.279 1586.62 733.273 1587.01 733.355C1591.08 733.791 1594.97 735.238 1598.34 737.564C1602.96 741.244 1606.74 745.878 1609.42 751.15C1616.91 763.048 1627.17 779.361 1650.51 779.361C1654.91 779.318 1659.3 778.825 1663.61 777.889C1683.37 772.894 1701.32 762.411 1715.38 747.651C1719.9 747.997 1724.45 747.737 1728.9 746.879C1730.12 746.704 1731.62 746.405 1733.23 746.086C1734.09 746.05 1734.95 745.898 1735.78 745.633C1738.44 744.493 1741.4 744.246 1744.21 744.931C1747.03 745.616 1749.54 747.195 1751.38 749.431C1753.75 754.505 1765.79 750.779 1763.63 746.086C1761.94 742.821 1759.27 740.168 1755.99 738.498C1752.71 736.827 1749 736.224 1745.36 736.772C1743.35 736.854 1741.34 737.088 1739.36 737.471C1737.57 733.221 1736.53 728.695 1736.27 724.091C1741.06 717.978 1745.54 711.741 1749.65 705.802C1751.05 705.915 1752.51 705.967 1754.05 705.967C1763.94 705.787 1773.73 703.986 1783.04 700.635C1788.94 705.975 1792.98 713.067 1794.55 720.87C1788.35 720.861 1782.28 722.622 1777.05 725.944C1772.38 729.186 1776.17 732.943 1780.44 732.799C1784.34 732.655 1792.1 730.483 1799.7 729.289H1799.82C1800.92 729.265 1802.01 729.11 1803.08 728.826C1805.85 727.846 1808.85 727.762 1811.67 728.588C1814.49 729.414 1816.97 731.107 1818.78 733.427C1820.91 738.696 1833.04 735.073 1831.03 730.082C1827.22 720.705 1817.65 719.398 1807.46 720.366C1805.81 711.015 1801.34 702.395 1794.64 695.664C1804.45 690.949 1812.98 683.945 1819.52 675.244C1828.99 663.26 1834.63 648.698 1835.71 633.458C1836.23 633.509 1836.74 633.53 1837.31 633.53C1842.28 633.001 1847.09 631.458 1851.43 628.995C1855.78 626.533 1859.57 623.203 1862.58 619.213C1866.74 614.387 1870.01 608.864 1872.24 602.9C1880.31 581.276 1870.35 569.934 1865.5 565.95H1865.49ZM1780.33 455.113C1781.26 456.646 1796.27 485.331 1786.25 484.672C1776.89 476.748 1770.4 465.951 1767.81 453.96C1767.47 448.135 1765.23 440.384 1770.37 438.233C1774.26 443.657 1777.6 450.491 1780.34 455.123L1780.33 455.113ZM1726.04 737.451C1725.71 737.451 1725.4 737.502 1725.08 737.533L1725.85 736.669L1726.05 737.451H1726.04ZM1861.69 597.712C1859.47 604.284 1855.28 610.01 1849.68 614.106C1844.08 618.203 1837.35 620.472 1830.42 620.602H1829.39L1827.33 620.428L1827.03 622.908C1824.44 637.3 1818.39 650.847 1809.4 662.379C1796.02 679.876 1778.66 686.329 1760.21 693.143L1757.46 694.172C1764.42 683.329 1770.81 672.13 1776.6 660.619L1773.48 656.996L1769.94 659.888C1766.85 661.854 1763.39 663.171 1759.77 663.758L1758.61 663.912L1758.06 665.168C1749.55 682.868 1739.11 699.572 1726.93 714.973C1726.14 715.337 1725.44 715.882 1724.89 716.562C1724.35 717.243 1723.97 718.041 1723.79 718.894C1707.17 740.795 1684.21 757.04 1658.03 765.415C1656.25 765.867 1654.42 766.095 1652.59 766.094C1636.74 766.094 1623.97 748.124 1614.5 734.826C1612.16 731.351 1609.63 728.011 1606.91 724.822C1604.65 722.409 1601.92 720.492 1598.88 719.195C1595.85 717.897 1592.57 717.248 1589.27 717.288C1586.72 717.155 1584.16 717.556 1581.77 718.465C1579.39 719.375 1577.21 720.772 1575.39 722.568C1573.46 725.6 1572.28 729.045 1571.93 732.622C1571.59 736.2 1572.09 739.808 1573.41 743.153C1569.26 739.881 1566.36 735.291 1565.17 730.143C1563.65 724.119 1564.2 717.76 1566.72 712.08C1568.87 708.546 1571.74 705.496 1575.13 703.124C1578.53 700.752 1582.38 699.109 1586.44 698.299C1589.4 698.01 1592.24 696.997 1594.72 695.349C1597.2 693.701 1599.23 691.47 1600.64 688.851C1601.01 687.691 1601.13 686.467 1600.99 685.258C1600.86 684.049 1600.47 682.882 1599.86 681.831C1599.27 680.909 1598.42 680.178 1597.42 679.726C1596.42 679.275 1595.31 679.123 1594.23 679.289C1589.95 679.196 1585.77 678.04 1582.05 675.924C1576.4 673.23 1571.84 668.688 1569.12 663.048C1566.63 658.721 1565.38 653.793 1565.5 648.803C1569.79 651.19 1574.61 652.454 1579.52 652.478C1583.03 652.631 1586.53 651.973 1589.74 650.553C1592.95 649.134 1595.8 646.993 1598.05 644.295C1599.42 642.389 1600.01 640.027 1599.69 637.698C1598.24 632.023 1598.32 626.065 1599.91 620.428C1599.99 620.255 1600.11 620.106 1600.27 619.995C1605.06 618.93 1609.96 618.398 1614.87 618.41C1636.59 618.692 1657.49 626.722 1673.81 641.053L1677.3 645.53C1684.31 654.557 1687.83 659.065 1694.44 659.065C1696.86 658.978 1699.25 658.513 1701.53 657.686C1711.57 654.413 1710.94 648.906 1710.72 647.836L1710.42 646.446L1709.3 645.952C1700.25 642.437 1692.02 637.102 1685.12 630.277C1670.94 615.384 1651.51 606.604 1630.96 605.802C1638.28 597.023 1654.63 578.96 1661.84 577.076C1662.27 576.971 1662.71 576.916 1663.16 576.912C1672.37 576.912 1684.91 598.248 1688.98 606.461L1692.15 612.883L1693.08 605.493C1694.4 594.995 1698.78 577.889 1704.95 576.675C1705.29 576.604 1705.64 576.569 1705.98 576.572C1712.96 576.572 1721.51 589.448 1724.23 594.409L1727.95 601.243L1728.31 593.06C1728.65 584.631 1730.94 572.815 1734.33 572.548H1735.17C1737.45 572.694 1739.68 573.3 1741.72 574.329C1743.76 575.359 1745.57 576.79 1747.04 578.538C1746.83 578.301 1747.04 573.392 1746.71 572.476C1746.48 571.772 1746.2 571.085 1745.88 570.417C1771.61 572.682 1781.78 551.232 1772.22 522.043C1763.42 495.284 1747.64 468.04 1737 441.547C1734.07 434.312 1731.84 426.813 1730.33 419.151C1727.11 392.155 1754.93 379.166 1780.15 407.223C1796.62 422.394 1776.48 422.661 1766.77 425.378C1741.6 432.367 1756.12 467.227 1765.39 482.161C1769.52 487.575 1774.59 492.199 1780.36 495.808C1808.52 532.161 1846.24 567.587 1815.36 583.869C1807.99 587.749 1819.85 587.657 1822.96 586.02C1851.26 571.097 1835.13 544.759 1812.98 517.268C1817.11 517.296 1821.24 517.024 1825.33 516.455C1833.65 516.085 1841.83 518.71 1848.39 523.855C1852.27 527.099 1854.78 531.691 1855.43 536.71C1855.83 546.975 1853.31 557.143 1848.16 566.033L1846.17 569.429L1849.54 570.253C1852.4 570.994 1855.07 572.335 1857.38 574.185C1859.69 576.036 1861.57 578.354 1862.92 580.987C1864.71 586.511 1864.28 592.517 1861.7 597.723L1861.69 597.712ZM1756.41 413.48C1757.19 413.198 1757.85 412.666 1758.29 411.967C1758.73 411.268 1758.93 410.443 1758.84 409.621C1758.68 409.011 1758.38 408.449 1757.95 407.98C1757.53 407.511 1757 407.149 1756.41 406.924L1756.18 406.41L1755.25 405.38C1754.18 404.564 1752.86 404.136 1751.51 404.166C1750.57 404.155 1749.65 404.352 1748.8 404.742C1748.08 405.06 1747.45 405.56 1746.99 406.193C1746.76 406.506 1746.59 406.854 1746.48 407.223V407.562C1746.17 408.746 1745.89 409.937 1745.64 411.134C1745.66 411.716 1745.82 412.285 1746.1 412.794C1746.38 413.304 1746.78 413.74 1747.26 414.067C1748.36 414.835 1749.67 415.238 1751.01 415.22C1751.65 415.171 1752.29 415.036 1752.89 414.818C1754.11 414.47 1755.29 414.011 1756.42 413.45L1756.41 413.48Z" fill="white"/>
</g>
<defs>
<clipPath id="clip0">
<rect width="2398" height="453" fill="white" transform="translate(415 350)"/>
</clipPath>
</defs>
</svg>
