<svg width="3228" height="1152" viewBox="0 0 3228 1152" fill="none" xmlns="http://www.w3.org/2000/svg">
<path d="M754 740.046C932.229 726.225 1065.98 613.199 1064.05 419.499V419.509H876.692V468.699H979.759C978.381 597.185 883.603 690.303 754 697.757V740.046Z" fill="white"/>
<path fill-rule="evenodd" clip-rule="evenodd" d="M1348.11 688.644L1351.43 688.362L1240.06 419.499H1172.64L1051.34 688.362L1112.12 688.644L1138.93 633.65H1253.33L1277.92 688.644H1348.11ZM1161.32 583.353H1233.7L1199.44 491.895L1161.32 583.353Z" fill="white"/>
<path fill-rule="evenodd" clip-rule="evenodd" d="M1599.02 672.891C1574.69 687.537 1547.06 693.341 1519.43 693.894C1437.08 695.272 1360.54 642.502 1360.81 554.071C1361.08 513.733 1377.11 480.297 1405.29 456.537C1460.56 409.56 1533.78 405.687 1596.24 432.224V480.578C1546.21 449.073 1432.37 454.605 1432.37 554.081C1432.37 654.945 1537.94 657.43 1599 627.594V672.891H1599.02ZM2264.97 666.805V607.677C2274.36 613.199 2295.08 628.409 2319.39 636.406C2355.32 648.286 2398.7 651.605 2401.47 618.45C2403.94 585.013 2305.57 569.26 2282.1 547.422C2267.44 533.339 2259.98 515.655 2259.98 494.088C2259.98 471.163 2269.66 452.915 2288.72 438.551C2308.07 424.458 2332.94 417.266 2363.89 417.266C2379.35 417.266 2395.11 418.925 2410.86 422.788C2426.33 426.379 2442.09 431.912 2457.27 438.812V493.525C2437.66 475.297 2330.72 436.046 2330.72 488.555C2330.72 524.195 2473.3 509.831 2473.3 613.451C2473.3 638.045 2459.22 657.389 2440.16 671.492C2421.08 685.575 2394.28 692.757 2360.3 692.757C2343.17 692.757 2326.86 690.544 2310.83 686.41C2294.75 681.915 2279.33 675.324 2264.97 666.805ZM1627.76 554.353C1627.76 534.174 1631.34 515.383 1638.81 497.981C1646.27 480.85 1657.32 465.379 1671.97 451.829C1686.06 438.843 1702.36 428.904 1720.33 422.818C1738.56 416.189 1758.74 413.151 1780.85 413.151C1803.25 413.151 1823.68 416.189 1841.65 422.818C1859.69 429.029 1876.25 438.906 1890.28 451.829C1904.92 465.379 1915.98 480.85 1923.17 497.981C1930.9 515.383 1934.49 534.184 1934.49 554.353C1934.49 574.793 1930.9 593.312 1923.17 610.725C1915.98 627.855 1904.93 643.326 1890.28 656.595C1876.05 669.455 1859.44 679.406 1841.38 685.887C1823.13 692.516 1802.98 695.836 1780.85 695.836C1758.75 695.836 1738.57 692.516 1720.61 686.159C1702.65 679.517 1686.15 669.479 1671.98 656.595C1657.77 643.855 1646.46 628.213 1638.82 610.725C1631.34 593.312 1627.76 574.793 1627.76 554.353ZM1697.94 554.624C1697.94 582.529 1705.68 605.464 1721.42 623.701C1736.9 641.667 1756.8 650.78 1780.83 650.78C1805.15 650.78 1825.05 641.667 1840.52 623.701C1856 605.464 1863.74 582.529 1863.74 554.624C1863.74 526.428 1856 503.232 1840.52 484.984C1825.06 467.029 1805.15 457.915 1780.83 457.915C1756.79 457.915 1736.9 467.029 1721.42 484.984C1705.68 503.222 1697.94 526.428 1697.94 554.624ZM1990.83 686.149V418.945H2090.6C2126.24 418.945 2153.04 424.75 2171.01 436.358C2189.24 447.956 2198.36 465.087 2198.36 487.751C2198.36 499.631 2195.32 509.851 2188.97 518.693C2182.88 527.806 2174.04 534.727 2162.15 539.968C2181.22 545.772 2195.32 554.614 2204.72 565.941C2213.81 577.549 2218.53 592.185 2218.53 609.598C2218.53 635.299 2209.69 654.371 2192.01 667.076C2174.03 679.791 2147.23 686.149 2111.59 686.149H1990.83ZM2098.06 641.948C2115.75 641.948 2128.18 639.454 2135.62 634.203C2143.09 628.962 2146.96 620.391 2146.96 608.501C2146.96 596.068 2142.82 587.226 2135.07 581.14C2127.05 575.346 2114.62 572.57 2097.76 572.57H2058.8V641.948H2098.06ZM2093.93 528.37C2106.07 528.37 2115.2 526.157 2121.28 521.177C2127.36 516.208 2130.12 508.744 2130.12 499.077C2130.12 488.022 2127.07 479.733 2121.01 474.482C2115.21 469.242 2106.08 466.475 2093.94 466.475H2058.83V528.37H2093.93Z" fill="white"/>
<path fill-rule="evenodd" clip-rule="evenodd" d="M887.747 45.628C886.087 47.5594 888.3 49.4908 889.407 51.1506C1016.8 216.112 641.538 373.347 859.018 534.446C860.396 535.542 863.716 537.192 865.375 535.824C867.035 534.446 865.094 531.951 863.987 530.583C694.6 339.357 1092.79 228.827 894.376 47.841C892.998 46.7345 889.96 43.6966 887.747 45.628Z" fill="white"/>
</svg>
