<svg width="3228" height="1152" viewBox="0 0 3228 1152" fill="none" xmlns="http://www.w3.org/2000/svg">
<path fill-rule="evenodd" clip-rule="evenodd" d="M1331.43 106.904C1331.43 106.904 1334.8 99.4778 1337.5 106.904C1340.2 114.325 1351.67 144.026 1338.18 225.701C1338.18 229.752 1338.51 232.116 1341.55 228.064C1344.59 224.013 1364.83 190.262 1365.17 116.018C1365.17 112.978 1366.86 110.62 1371.58 113.319C1376.31 116.018 1398.24 141.667 1389.13 183.181C1380.02 224.689 1351 255.737 1344.93 273.294C1338.85 290.845 1338.18 299.278 1340.2 300.295C1342.23 301.306 1347.62 301.983 1354.04 284.431C1360.45 266.879 1372.26 241.57 1389.47 216.597C1392.51 212.886 1396.89 212.546 1396.56 215.921C1396.22 219.296 1391.5 252.707 1390.15 260.805C1388.8 268.907 1384.41 282.072 1374.29 295.568C1364.16 309.068 1346.61 327.632 1341.22 359.355C1341.55 361.714 1341.89 366.777 1345.6 361.043C1349.32 355.309 1360.79 330.331 1368.55 317.506C1376.31 304.682 1385.76 293.204 1388.46 287.47C1389.8 285.107 1394.87 282.408 1394.87 288.146C1394.87 293.885 1394.87 312.443 1390.14 329.995C1385.42 347.547 1382.72 350.587 1369.56 369.486C1356.4 388.385 1341.22 410.323 1341.22 436.308C1342.56 440.359 1346.61 441.035 1348.3 436.648C1349.99 432.262 1366.86 385.009 1374.96 376.236C1383.06 367.458 1390.48 354.633 1391.16 352.274C1391.83 349.911 1392.51 346.876 1396.22 347.888C1399.94 348.899 1398.24 353.622 1397.57 356.661C1396.9 359.701 1394.87 386.357 1393.19 396.823C1391.5 407.289 1391.84 410.999 1377.67 433.609C1363.5 456.218 1335.49 486.595 1338.86 509.209C1340.89 514.608 1345.61 519.67 1352.36 507.522C1359.11 495.373 1362.14 476.474 1371.93 461.622C1381.72 446.774 1391.17 436.984 1400.62 429.898C1402.64 432.938 1405.34 449.133 1399.94 466.684C1394.54 484.231 1372.27 515.955 1365.18 536.211C1358.09 556.457 1354.72 563.542 1358.77 586.498C1359.78 588.521 1362.48 592.912 1365.52 586.162C1368.56 579.412 1371.26 571.985 1372.94 559.501C1374.63 547.012 1381.38 523.051 1385.43 514.277C1389.48 505.499 1392.18 497.401 1396.23 493.35C1397.58 492.674 1398.25 491.998 1398.6 495.373C1398.94 498.748 1398.6 515.284 1398.26 532.836C1397.92 550.382 1396.57 584.81 1386.79 619.233C1385.78 632.733 1384.77 647.922 1391.52 650.956C1398.26 653.996 1399.95 651.292 1399.61 643.53C1399.28 635.773 1396.57 599.993 1402.31 576.037C1404.67 561.86 1405.69 557.133 1405.69 557.133C1405.69 557.133 1409.73 549.706 1411.76 556.797C1413.78 563.888 1420.87 584.81 1421.21 605.397C1421.54 625.988 1422.22 675.599 1446.18 699.22C1449.22 702.931 1455.28 704.283 1452.25 694.833C1449.22 685.389 1429.98 646.91 1428.63 624.3C1427.96 620.59 1427.62 613.834 1433.69 616.874C1439.09 622.613 1462.04 643.535 1467.78 662.439C1473.51 681.338 1474.53 698.549 1511.98 733.307C1513.67 734.659 1517.04 735.671 1514.34 729.937C1511.64 724.193 1513.67 723.858 1505.57 713.732C1497.47 703.607 1485.66 685.043 1477.9 669.855C1476.21 666.82 1474.86 663.445 1480.26 663.786C1486.67 666.826 1509.28 680.321 1524.12 700.232C1538.97 720.147 1541.67 723.182 1555.5 747.143C1557.19 749.842 1561.24 750.518 1560.23 746.467C1559.22 742.416 1546.73 712.716 1543.02 706.977C1540.66 701.914 1540.32 697.863 1546.39 701.238C1552.81 706.636 1573.39 723.517 1585.2 754.224C1594.65 783.589 1608.83 786.629 1613.55 786.629C1618.27 786.629 1628.73 781.901 1640.55 752.206C1654.71 721.489 1669.23 711.369 1675.97 704.278C1679.35 701.578 1684.41 701.238 1680.36 706.641C1676.31 712.045 1658.08 732.626 1660.45 751.53C1661.12 754.905 1662.81 758.275 1666.19 751.865C1669.56 745.451 1696.9 697.192 1706.01 686.055C1715.11 674.918 1730.64 665.804 1737.73 658.718C1739.41 657.706 1741.44 657.366 1740.42 660.741C1739.41 664.116 1739.41 675.924 1708.71 721.153C1704.32 727.899 1701.96 737.353 1710.72 731.274C1719.5 725.2 1733.33 710.687 1739.41 699.55C1745.49 688.413 1747.17 663.781 1753.59 652.639C1760 641.497 1780.24 618.552 1786.99 612.477C1789.01 611.125 1791.37 610.79 1790.7 614.841C1790.02 618.892 1786.31 652.303 1769.77 685.714C1767.76 692.805 1766.07 712.039 1778.21 698.534C1789.69 681.998 1797.45 656.69 1798.8 631.712C1800.15 606.738 1795.76 594.59 1799.48 573.998C1803.19 553.412 1803.53 549.361 1809.26 549.025C1810.62 555.775 1815.34 578.726 1816.01 586.828C1816.69 594.93 1819.05 614.5 1815.68 638.802C1815.68 644.877 1818.04 650.28 1822.09 648.928C1826.14 647.576 1827.49 640.826 1830.19 634.416C1832.89 628.006 1834.58 621.256 1833.23 614.17C1831.89 607.084 1829.18 594.259 1826.82 587.169C1824.46 580.078 1819.06 566.918 1818.38 541.944C1817.71 516.966 1818.05 503.471 1817.37 494.697C1817.71 490.311 1820.75 488.623 1823.44 493.686C1826.14 498.748 1837.61 521.022 1840.31 544.984C1843.01 568.946 1844.69 579.407 1852.79 586.157C1856.17 588.521 1856.5 587.845 1858.53 583.793C1860.56 579.742 1866.29 558.82 1859.21 540.592C1852.12 522.364 1822.43 476.81 1817.71 463.304C1812.98 449.803 1812.64 445.076 1814 429.217C1814.33 427.529 1815.01 424.49 1820.41 427.529C1825.81 430.569 1842.34 442.718 1849.42 460.264C1856.51 477.811 1863.6 494.352 1866.64 503.801C1869.68 508.188 1874.06 512.915 1874.74 503.466C1875.42 494.016 1873.73 476.129 1870.69 472.078C1867.65 468.031 1834.58 429.553 1829.52 417.404C1824.46 405.25 1819.06 399.181 1817.71 378.93C1816.36 358.679 1815.35 348.894 1815.69 346.195C1816.03 343.496 1817.38 340.121 1821.09 344.843C1824.8 349.57 1850.44 384.664 1855.84 403.568C1861.24 422.467 1870.69 439.342 1873.05 438.326C1875.42 437.314 1873.05 421.455 1865.29 398.165C1858.88 381.629 1841.67 361.038 1841.67 361.038C1841.67 361.038 1811.3 332.349 1817.38 285.778C1818.06 282.402 1819.74 277.68 1824.13 283.419C1828.52 289.153 1853.48 323.916 1860.24 347.542C1864.62 356.992 1872.72 367.793 1873.06 357.327C1870.36 343.491 1860.91 321.893 1847.41 302.318C1833.92 282.743 1822.1 274.646 1819.4 235.831C1817.38 221.319 1817.72 221.66 1815.02 215.245C1813.67 211.194 1816.7 208.154 1820.08 212.881C1823.45 219.291 1824.81 225.37 1834.25 236.167C1849.43 252.707 1853.15 276.328 1862.26 290.5C1867.32 296.574 1869.68 296.239 1869.01 291.176C1868.33 286.113 1868 264.175 1860.57 252.026C1853.15 239.872 1826.16 203.762 1820.76 185.204C1815.36 166.64 1806.25 128.167 1845.72 106.228C1842.69 122.433 1842.35 179.465 1858.88 206.466C1860.57 208.83 1863.61 213.217 1862.93 205.79C1862.26 198.369 1857.54 159.555 1867.66 126.815C1872.05 114.325 1872.72 108.927 1873.06 104.2C1873.39 99.4727 1878.12 97.7902 1879.81 104.2C1881.49 110.615 1889.6 135.923 1889.26 155.163C1888.92 174.397 1886.22 202.746 1885.55 210.848C1885.21 214.223 1887.23 215.575 1889.6 213.212C1891.96 210.848 1909.83 186.546 1910.85 153.14C1911.86 119.729 1909.16 107.575 1909.16 107.575C1909.16 107.575 1909.84 100.825 1914.56 103.864C1919.96 109.939 1937.17 134.576 1931.77 165.288C1926.38 196 1918.95 208.825 1901.06 234.474C1883.18 260.123 1886.9 294.21 1886.9 294.21C1886.9 294.21 1888.58 300.961 1891.96 294.21C1895.33 287.46 1903.42 265.186 1914.9 247.975C1926.38 230.758 1935.82 221.985 1936.17 205.109C1935.83 191.614 1940.55 197.347 1940.55 197.347C1940.55 197.347 1947.98 226.036 1942.57 242.572C1937.17 259.107 1922.33 285.097 1903.76 316.485C1892.29 341.463 1891.96 354.958 1891.96 354.958C1891.96 354.958 1893.31 359.004 1895 355.97C1896.69 352.935 1902.41 332.349 1908.83 322.899C1915.24 313.45 1935.82 296.239 1943.59 273.965C1945.28 270.925 1948.65 268.566 1948.65 273.289C1948.65 278.011 1953.38 299.614 1938.19 328.638C1923 357.663 1897.36 391.074 1894.32 420.774C1893.99 427.189 1894.32 434.951 1898.36 427.189C1902.41 419.427 1913.89 388.374 1921.65 377.237C1929.41 366.1 1935.82 357.998 1940.55 349.225C1942.24 346.526 1945.95 345.178 1945.95 350.236C1945.95 355.294 1946.62 384.659 1933.8 410.649C1920.97 436.638 1897.69 460.935 1894.99 497.386C1895.33 500.761 1895.33 502.449 1898.7 498.062C1902.08 493.676 1930.76 463.299 1945.61 429.888C1946.28 427.189 1949.66 424.49 1950.34 430.223C1951.01 435.957 1954.05 467.686 1923.67 511.558C1893.31 555.43 1882.85 566.231 1875.08 585.471C1874.07 589.181 1874.75 589.858 1878.46 587.494C1882.17 585.13 1902.08 569.607 1915.91 548.344C1929.75 527.082 1935.82 512.91 1937.84 503.796C1938.18 501.773 1940.88 501.773 1940.88 504.472C1940.88 507.171 1945.94 538.564 1929.75 565.56C1913.55 592.557 1898.03 595.596 1869.68 624.285C1841.33 652.974 1835.61 662.083 1835.61 662.083C1835.61 662.083 1832.91 666.475 1838.3 664.447C1843.7 662.429 1858.54 647.576 1869.34 639.809C1880.14 632.052 1907.47 613.484 1916.58 601.335C1919.62 598.301 1927.38 595.601 1924.01 603.028C1920.63 610.449 1915.91 628.336 1906.12 639.138C1896.34 649.934 1883.18 667.146 1818.39 696.506C1816.36 697.517 1814.34 699.545 1821.43 699.205C1828.52 698.864 1854.15 697.517 1877.1 690.431C1879.13 690.431 1880.81 690.767 1877.78 693.801C1874.74 696.846 1846.39 720.132 1825.48 725.189C1804.55 730.252 1750.9 741.73 1729.3 748.145C1726.26 749.497 1723.23 751.855 1728.62 752.196C1734.02 752.536 1779.24 753.548 1803.88 740.383C1806.92 738.695 1810.97 737.343 1809.27 741.059C1807.58 744.774 1800.5 750.849 1793.75 757.264C1787 763.673 1780.93 769.412 1745.16 773.123C1709.38 776.833 1686.78 780.214 1684.75 780.885C1682.72 781.556 1680.7 783.584 1683.06 784.26C1685.43 784.936 1716.81 793.369 1756.63 781.22C1750.22 790.334 1739.08 817.33 1663.49 809.909C1661.47 809.909 1659.11 810.245 1661.13 813.284C1663.15 816.324 1686.78 843.996 1686.78 843.996C1686.78 843.996 1691.84 849.059 1683.4 849.059C1674.97 849.059 1655.73 848.723 1655.73 848.723C1655.73 848.723 1654.04 848.047 1651 844.337C1647.97 840.626 1629.42 813.289 1629.42 813.289C1629.42 813.289 1626.72 810.59 1623.34 810.59C1619.97 810.59 1604.45 810.926 1604.45 810.926C1604.45 810.926 1601.41 811.602 1599.72 813.965C1598.03 816.329 1575.08 849.064 1575.08 849.064C1575.08 849.064 1575.76 851.428 1567.99 851.428H1546.39C1546.39 851.428 1540.32 851.758 1545.38 846.029C1550.45 840.291 1565.63 823.079 1571.71 812.954C1572.38 811.266 1573.39 808.903 1569.68 809.243C1565.97 809.579 1529.19 817.681 1507.26 810.931C1485.32 804.18 1485.32 802.493 1475.87 793.714C1474.18 791.351 1474.86 788.316 1478.57 788.987C1482.28 789.663 1514 794.726 1524.8 787.64C1527.16 786.283 1527.83 785.276 1523.45 784.265C1519.06 783.253 1498.48 781.225 1492.41 781.225C1486.33 781.225 1463.05 779.202 1452.93 776.839C1442.8 774.475 1420.2 758.611 1413.11 747.814C1411.76 746.127 1411.09 740.723 1420.87 744.774C1430.65 748.826 1436.39 756.588 1495.44 754.9C1497.47 754.9 1498.82 752.877 1495.11 751.86C1491.4 750.844 1458.66 742.411 1439.43 739.707C1420.2 737.008 1393.2 735.655 1370.93 721.479C1348.66 707.307 1345.28 700.892 1345.28 700.892C1345.28 700.892 1342.58 696.846 1348.99 697.853C1355.41 698.864 1357.77 699.54 1361.48 699.205C1365.19 698.869 1375.65 699.54 1390.5 705.955C1405.35 712.37 1404 711.694 1408.72 710.342C1402.31 705.614 1366.21 690.096 1344.61 671.868C1323.01 653.645 1307.15 646.219 1301.41 613.143C1301.08 610.444 1302.42 608.08 1305.8 610.779C1309.17 613.479 1347.97 643.514 1373.29 668.493C1378.68 671.532 1380.71 673.555 1381.72 671.532C1382.73 669.514 1380.37 667.481 1378.01 665.463C1375.65 663.44 1354.39 637.11 1331.44 618.552C1308.5 599.988 1288.25 581.425 1285.21 561.179C1282.17 540.928 1281.16 543.291 1279.82 525.74C1279.82 520.001 1283.87 516.29 1286.23 522.364C1288.59 528.439 1305.47 568.265 1338.2 594.925C1341.57 597.965 1347.64 602.016 1344.95 594.925C1342.25 587.834 1330.77 565.225 1321.66 554.088C1312.55 542.951 1284.2 516.285 1277.11 490.976C1270.03 465.668 1270.03 463.304 1269.69 443.729C1270.03 440.69 1271.71 437.99 1274.42 443.394C1277.12 448.792 1283.53 458.241 1294.67 474.782C1305.8 491.317 1314.24 503.806 1318.62 509.88C1323.01 515.955 1327.4 514.943 1326.72 508.193C1326.04 501.448 1319.3 478.497 1312.22 465.673C1305.13 452.848 1282.52 431.586 1277.12 408.971C1271.72 386.357 1268.68 372.861 1268.34 361.724C1268.68 357.673 1271.38 352.951 1275.77 358.349C1280.16 363.747 1304.45 395.811 1314.57 430.569C1316.6 435.632 1324.02 450.144 1323.01 435.967C1322 421.791 1316.6 406.608 1310.86 396.818C1305.13 387.027 1266.32 337.081 1266.99 314.131C1267.67 291.181 1266.99 290.169 1266.99 287.806C1266.99 285.442 1269.36 284.095 1271.04 287.47C1272.73 290.845 1276.78 299.959 1290.28 316.154C1303.77 335.058 1306.81 345.184 1316.26 369.821C1318.28 372.856 1323.69 378.259 1322.33 368.134C1320.98 358.008 1319.64 337.757 1300.4 308.062C1281.16 278.367 1265.31 258.787 1266.32 235.16C1266.32 215.926 1265.98 213.227 1265.98 213.227C1265.98 213.227 1268.34 205.124 1271.38 213.562C1273.07 223.688 1275.09 229.427 1285.55 241.575C1296.01 253.724 1307.15 270.264 1314.91 297.26C1318.95 306.039 1329.75 317.847 1328.07 300.971C1326.38 284.095 1324.69 266.208 1313.9 252.712C1303.1 239.212 1276.44 214.574 1274.41 176.436C1272.39 138.297 1287.24 124.121 1292.3 118.387C1297.36 112.648 1300.39 112.313 1300.06 120.074C1299.72 127.836 1297.36 156.861 1301.75 179.135C1306.13 201.409 1316.26 221.319 1320.64 227.393C1323.34 230.433 1325.7 230.093 1324.69 224.359C1323.67 218.615 1308.48 154.151 1331.43 106.904Z" fill="white"/>
<path fill-rule="evenodd" clip-rule="evenodd" d="M1449.87 292.859H1486.99C1486.99 292.859 1489.35 293.194 1489.35 297.245V364.068C1489.35 364.068 1490.7 367.443 1485.98 366.431C1481.25 365.42 1472.48 362.721 1472.48 362.721C1472.48 362.721 1468.77 362.721 1468.77 357.322V310.411C1468.77 310.411 1468.77 298.262 1449.87 292.859ZM1496.63 297.256C1496.63 297.256 1495.28 292.528 1499.67 292.528H1532.89C1532.89 292.528 1516.69 297.25 1516.69 312.098V350.236C1516.69 350.236 1515 352.26 1520.4 354.964C1525.8 357.663 1571.69 375.886 1607.12 408.29C1608.47 410.649 1608.47 411.665 1607.12 413.013C1605.77 414.365 1597.62 423.311 1597.62 423.311C1597.62 423.311 1595.99 425.837 1592.28 423.138C1588.57 420.439 1547.98 385.381 1501.08 372.216C1497.37 370.193 1496.39 368.165 1496.39 365.13C1496.38 362.09 1496.63 297.256 1496.63 297.256ZM1468.73 368.464C1468.73 368.464 1483.66 370.828 1486.03 372.175C1488.39 373.522 1488.73 375.886 1488.73 379.937V597.625H1451.27C1451.27 597.625 1468.25 596.273 1468.25 573.999C1468.25 551.72 1468.73 368.464 1468.73 368.464Z" fill="white"/>
<path fill-rule="evenodd" clip-rule="evenodd" d="M1496.78 597.284V374.874C1496.78 374.874 1540.65 385.675 1589.57 427.189C1590.92 429.552 1591.6 429.552 1589.23 432.251C1586.88 434.95 1581.47 441.025 1580.46 442.372C1579.45 443.724 1578.1 444.064 1575.06 441.701C1572.02 439.342 1546.04 417.404 1523.43 408.63C1519.39 407.278 1517.36 408.295 1517.36 412.005V597.294H1496.78V597.284ZM1599.7 428.871C1599.7 428.871 1607.46 418.405 1613.2 414.359C1619.61 418.07 1625.68 423.468 1627.71 428.195C1625.34 432.582 1617.92 440.684 1614.55 443.043C1608.13 438.997 1600.71 431.235 1599.7 428.871Z" fill="white"/>
<path fill-rule="evenodd" clip-rule="evenodd" d="M1582.32 448.62C1582.32 448.62 1590.08 438.159 1595.82 434.107C1602.23 437.818 1608.3 443.216 1610.33 447.944C1607.96 452.33 1600.54 460.433 1597.16 462.791C1590.76 458.74 1583.33 450.978 1582.32 448.62ZM1599.87 467.519C1599.87 467.519 1607.63 457.052 1613.36 453.006C1619.77 456.717 1625.85 462.12 1627.87 466.842C1625.51 471.234 1618.09 479.332 1614.71 481.695C1608.3 477.644 1600.88 469.882 1599.87 467.519Z" fill="white"/>
<path fill-rule="evenodd" clip-rule="evenodd" d="M1699.15 597.624C1699.15 597.624 1704.55 599.983 1703.2 591.886C1701.85 583.783 1694.77 510.551 1649.21 453.174C1649.21 453.174 1638.08 461.612 1634.7 467.35C1639.09 474.772 1667.47 512.371 1677.9 571.294C1678.58 576.692 1679.25 578.044 1673.17 578.044H1555.83C1549.76 578.044 1550.44 576.692 1551.11 571.294C1561.54 512.371 1589.91 474.772 1594.31 467.35C1590.93 461.612 1579.8 453.174 1579.8 453.174C1534.24 510.551 1527.15 583.783 1525.8 591.886C1524.45 599.983 1529.85 597.624 1529.85 597.624H1699.15Z" fill="white"/>
<path fill-rule="evenodd" clip-rule="evenodd" d="M1670.47 572.647C1670.47 572.647 1674.18 572.982 1672.49 567.248C1670.81 561.51 1661.36 511.899 1630.64 472.413C1630.64 472.413 1615.29 484.958 1617.31 487.998C1619.34 491.033 1634.65 516.59 1644.14 545.6C1645.15 550.998 1644.82 552.69 1640.77 552.69H1588.22C1584.18 552.69 1583.84 551.003 1584.85 545.6C1594.34 516.595 1609.65 491.038 1611.68 487.998C1613.7 484.958 1598.35 472.413 1598.35 472.413C1567.64 511.899 1558.19 561.51 1556.5 567.248C1554.82 572.982 1558.53 572.647 1558.53 572.647H1670.47ZM1779.13 292.859H1742.01C1742.01 292.859 1739.65 293.194 1739.65 297.245V364.068C1739.65 364.068 1738.29 367.443 1743.02 366.431C1747.75 365.42 1756.52 362.721 1756.52 362.721C1756.52 362.721 1760.23 362.721 1760.23 357.322V310.411C1760.23 310.411 1760.23 298.262 1779.13 292.859ZM1732.37 297.256C1732.37 297.256 1733.72 292.528 1729.33 292.528H1696.11C1696.11 292.528 1712.31 297.25 1712.31 312.098V350.236C1712.31 350.236 1714 352.26 1708.6 354.964C1703.21 357.663 1657.31 375.886 1621.89 408.29C1620.54 410.649 1620.54 411.665 1621.89 413.013C1623.24 414.36 1631.39 423.311 1631.39 423.311C1631.39 423.311 1633.01 425.837 1636.73 423.138C1640.44 420.439 1681.03 385.381 1727.93 372.216C1731.64 370.193 1732.62 368.165 1732.62 365.13C1732.61 362.09 1732.37 297.256 1732.37 297.256ZM1760.26 368.464C1760.26 368.464 1745.33 370.828 1742.97 372.175C1740.62 373.522 1740.28 375.886 1740.28 379.937V597.625H1777.73C1777.73 597.625 1759.84 596.273 1759.84 573.999C1759.84 551.72 1760.26 368.464 1760.26 368.464Z" fill="white"/>
<path fill-rule="evenodd" clip-rule="evenodd" d="M1732.23 597.284V374.874C1732.23 374.874 1688.36 385.675 1639.42 427.189C1638.07 429.552 1637.4 429.552 1639.76 432.251C1642.12 434.95 1647.52 441.025 1648.53 442.372C1649.55 443.724 1650.9 444.064 1653.93 441.701C1656.97 439.342 1682.96 417.404 1705.56 408.63C1709.61 407.278 1711.63 408.295 1711.63 412.005V597.294H1732.23V597.284Z" fill="white"/>
<path fill-rule="evenodd" clip-rule="evenodd" d="M1646.68 448.62C1646.68 448.62 1638.92 438.159 1633.18 434.107C1626.77 437.818 1620.7 443.216 1618.68 447.944C1621.04 452.33 1628.46 460.433 1631.83 462.791C1638.24 458.74 1645.66 450.978 1646.68 448.62ZM1434.38 914.962L1427.1 914.86V911.363H1472.17V914.86L1464.88 914.962L1462.98 915.119C1461.71 915.226 1460.9 915.582 1460.58 916.181C1460.25 916.781 1460.09 917.559 1460.09 918.525V950.406C1460.09 952.841 1460.6 954.269 1461.62 954.676C1462.64 955.082 1466.2 955.306 1472.28 955.352V958.849H1427.1V955.352L1431.78 955.286C1435.2 955.245 1437.3 954.991 1438.05 954.533C1438.8 954.071 1439.18 952.953 1439.18 951.179V936.57H1407.4V951.855C1407.4 953.374 1407.84 954.315 1408.72 954.681C1409.61 955.042 1411.31 955.25 1413.81 955.291L1419.59 955.357V958.854H1374.23V955.448L1381.05 955.352C1383.39 955.286 1384.84 955.016 1385.38 954.533C1385.91 954.05 1386.23 953.141 1386.31 951.788L1386.42 949.445V918.072C1386.42 916.553 1385.9 915.658 1384.89 915.394C1383.87 915.129 1380.31 914.951 1374.22 914.865V911.368H1419.58V914.865L1412.3 914.967C1410.11 914.967 1408.74 915.221 1408.2 915.719C1407.66 916.222 1407.39 917.03 1407.39 918.144V932.402H1439.17V918.53C1439.17 917.03 1438.88 916.095 1438.3 915.719C1437.73 915.343 1436.42 915.094 1434.38 914.962ZM1511.4 922.444C1514.71 916.644 1521.03 913.742 1530.35 913.742C1538.09 913.742 1543.48 915.785 1546.5 919.877C1549.53 923.964 1551.04 929.072 1551.04 935.192C1551.04 942.258 1549.44 947.6 1546.24 951.229C1543.05 954.859 1537.88 956.668 1530.76 956.668C1522.17 956.668 1516.34 954.508 1513.28 950.187C1510.25 945.96 1508.64 940.877 1508.68 935.675C1508.68 930.002 1509.59 925.59 1511.4 922.444ZM1497.13 952.205C1505.52 957.365 1516.27 959.942 1529.37 959.942C1543.31 959.942 1554.58 957.222 1563.17 951.788C1570.8 946.949 1574.61 941.373 1574.61 935.06C1574.61 928.854 1570.93 923.364 1563.58 918.591C1555.07 913.066 1543.72 910.305 1529.54 910.305C1517.6 910.305 1507.31 912.608 1498.68 917.208C1489.75 922.002 1485.27 927.908 1485.27 934.928C1485.28 941.632 1489.23 947.392 1497.13 952.205ZM1586.86 929.189L1588.83 911.368H1667.01L1668.8 929.189H1662.91C1662.25 926.322 1660.7 923.572 1658.28 920.934C1654.35 916.72 1649.11 914.611 1642.57 914.611C1640.56 914.611 1639.33 914.84 1638.89 915.302C1638.45 915.765 1638.23 916.634 1638.23 917.92V952.47C1638.23 953.878 1638.86 954.716 1640.13 954.971C1641.4 955.23 1645.26 955.357 1651.69 955.357V958.854H1603.85V955.448L1612.34 955.291C1613.96 955.25 1615.19 954.976 1616.04 954.472C1616.89 953.969 1617.31 953.181 1617.31 952.114V916.634C1617.31 915.948 1617.05 915.439 1616.53 915.094C1616.01 914.748 1614.71 914.575 1612.63 914.575C1606.39 914.575 1601.44 916.492 1597.78 920.324C1595.77 922.424 1594.06 925.377 1592.63 929.189H1586.86ZM1678.5 958.854V955.357C1684.01 955.403 1687.47 955.27 1688.87 954.971C1690.27 954.671 1690.98 953.74 1690.98 952.175V917.407C1690.98 916.248 1690.34 915.556 1689.07 915.317C1687.8 915.084 1684.28 914.936 1678.5 914.865V911.368H1757.83L1758.76 928.513L1752.87 928.574C1750.44 923.033 1746.78 919.348 1741.89 917.513C1737 915.688 1730.94 914.768 1723.75 914.768C1719.01 914.768 1715.85 915.073 1714.27 915.668C1712.69 916.268 1711.9 917.534 1711.9 919.46V932.625L1713.26 932.671C1713.55 932.681 1713.84 932.686 1714.15 932.686C1720.09 932.686 1724.44 931.522 1727.21 929.189C1728.75 927.878 1729.91 925.931 1730.68 923.344H1736.7V946.172L1730.86 946.238C1730.29 942.278 1728.25 939.599 1724.77 938.212C1721.27 936.824 1717 936.122 1711.91 936.122V951.341C1711.91 953.1 1712.63 954.203 1714.08 954.665C1715.52 955.128 1719.06 955.357 1724.68 955.357C1734.12 955.357 1741.19 953.878 1745.89 950.924C1748.71 949.145 1751.5 945.918 1754.26 941.231L1760.16 941.455L1758.77 958.859H1678.5V958.854ZM1774.33 958.854V955.357C1777.92 955.357 1780.1 955.347 1780.88 955.321C1781.86 955.288 1782.83 955.225 1783.8 955.133C1784.74 955.042 1785.44 954.854 1785.95 954.554C1786.44 954.254 1786.7 953.613 1786.7 952.627V919.907C1786.7 917.62 1786.41 916.227 1785.85 915.749C1785.3 915.272 1783.51 915.007 1780.51 914.967L1774.33 914.865V911.368H1821.07V914.865L1811.88 914.967C1810.07 914.992 1808.94 915.236 1808.47 915.709C1808 916.181 1807.77 916.822 1807.77 917.635V949.74L1807.89 951.733C1807.96 953.232 1808.6 954.213 1809.8 954.686C1810.99 955.159 1813.82 955.392 1818.3 955.392C1823.85 955.392 1828.37 955.077 1831.91 954.442C1835.43 953.812 1838.52 952.653 1841.18 950.96C1843.41 949.527 1845.21 947.778 1846.57 945.724C1847.94 943.671 1848.74 942.141 1848.98 941.139H1855.16L1853.65 958.859H1774.33V958.854ZM1215.28 1002.42H1253.66L1272.15 1031.29L1289.83 1002.42H1327.5V1005.92L1320.22 1006.02C1317.98 1006.04 1316.63 1006.37 1316.14 1007C1315.66 1007.63 1315.42 1008.97 1315.42 1011.03L1315.31 1042.17C1315.31 1043.74 1315.57 1044.82 1316.11 1045.41C1316.65 1046.01 1318.12 1046.32 1320.5 1046.35L1327.33 1046.42V1049.91H1282.95V1046.42L1289.83 1046.35C1291.95 1046.32 1293.37 1045.9 1294.11 1045.06C1294.54 1044.58 1294.77 1043.94 1294.74 1043.29V1006.76L1268.57 1049.91H1262.67L1235.46 1007.37V1037.74C1235.46 1041.1 1236.51 1043.4 1238.61 1044.63C1240.71 1045.86 1244.03 1046.45 1248.57 1046.41V1049.91H1215V1046.41C1218.93 1046.28 1221.7 1045.9 1223.32 1045.28C1226.01 1044.25 1227.46 1042.25 1227.66 1039.27L1227.77 1037.45V1009.52C1227.77 1008.14 1227.47 1007.23 1226.88 1006.77C1226.28 1006.31 1224.65 1006.06 1221.99 1006.02L1215.29 1005.92V1002.42H1215.28ZM1337.99 1049.91V1046.42C1343.49 1046.46 1346.95 1046.32 1348.36 1046.03C1349.76 1045.73 1350.47 1044.8 1350.47 1043.23V1008.46C1350.47 1007.31 1349.83 1006.61 1348.56 1006.38C1347.29 1006.14 1343.77 1005.99 1337.99 1005.92V1002.43H1417.32L1418.25 1019.57L1412.35 1019.64C1409.92 1014.1 1406.26 1010.41 1401.37 1008.58C1396.48 1006.75 1390.43 1005.83 1383.23 1005.83C1378.49 1005.83 1375.33 1006.14 1373.75 1006.73C1372.17 1007.33 1371.38 1008.59 1371.38 1010.52V1023.68L1372.74 1023.73C1373.03 1023.74 1373.33 1023.75 1373.63 1023.75C1379.56 1023.75 1383.92 1022.59 1386.69 1020.25C1388.23 1018.95 1389.39 1017 1390.16 1014.41H1396.17V1037.24L1390.33 1037.31C1389.75 1033.35 1387.72 1030.67 1384.24 1029.28C1380.75 1027.89 1376.47 1027.19 1371.38 1027.19V1042.41C1371.38 1044.17 1372.1 1045.27 1373.54 1045.73C1374.99 1046.19 1378.52 1046.43 1384.15 1046.43C1393.58 1046.43 1400.65 1044.95 1405.35 1041.99C1408.16 1040.21 1410.96 1036.99 1413.73 1032.3L1419.63 1032.52L1418.24 1049.93H1337.99V1049.91ZM1433.41 1020.24L1435.38 1002.42H1513.56L1515.35 1020.24H1509.46C1508.8 1017.38 1507.26 1014.63 1504.84 1011.99C1500.91 1007.78 1495.67 1005.67 1489.12 1005.67C1487.11 1005.67 1485.89 1005.9 1485.45 1006.36C1485 1006.82 1484.78 1007.69 1484.78 1008.98V1043.52C1484.78 1044.94 1485.42 1045.77 1486.69 1046.03C1487.96 1046.29 1491.81 1046.42 1498.24 1046.42V1049.91H1450.4V1046.51L1458.89 1046.35C1460.51 1046.3 1461.74 1046.03 1462.59 1045.53C1463.44 1045.03 1463.86 1044.24 1463.86 1043.17V1007.69C1463.88 1007.38 1463.82 1007.08 1463.68 1006.81C1463.54 1006.54 1463.33 1006.31 1463.08 1006.15C1462.56 1005.81 1461.27 1005.63 1459.18 1005.63C1452.94 1005.63 1447.99 1007.54 1444.33 1011.38C1442.32 1013.48 1440.61 1016.43 1439.19 1020.24H1433.41V1020.24ZM1560.87 1006.39C1562.03 1005.99 1564.61 1005.8 1568.61 1005.8C1574.16 1005.8 1578.47 1006.37 1581.56 1007.5C1584.64 1008.64 1586.32 1010.74 1586.59 1013.79C1586.59 1018.24 1584.12 1021.1 1579.19 1022.37C1575.99 1023.18 1569.23 1023.59 1558.9 1023.59V1009.2C1559.06 1007.72 1559.72 1006.79 1560.87 1006.39ZM1525.34 1002.42V1005.92L1533.02 1006.02C1535.29 1006.04 1536.66 1006.36 1537.12 1006.97C1537.59 1007.58 1537.82 1009 1537.82 1011.26V1041.86L1537.65 1043.52C1537.49 1044.92 1536.81 1045.75 1535.59 1046.01C1534.38 1046.28 1530.96 1046.42 1525.34 1046.42V1049.91H1571.91V1046.42L1566.3 1046.31C1562.8 1046.29 1560.69 1046.11 1559.97 1045.75C1559.26 1045.4 1558.91 1044.48 1558.91 1043.01V1027.08H1566.42C1571.78 1027.08 1575.35 1027.83 1577.14 1029.3C1578.93 1030.77 1580.02 1033.02 1580.41 1036.01L1581.1 1041.47C1581.45 1044.32 1583.22 1046.56 1586.42 1048.21C1589.61 1049.86 1594.14 1050.68 1600 1050.68C1605.27 1050.68 1609.88 1049.84 1613.81 1048.16C1617.74 1046.48 1619.7 1043.45 1619.7 1039.06L1613.81 1038.96C1613.42 1041.27 1612.78 1042.91 1611.87 1043.87C1610.97 1044.83 1609.74 1045.32 1608.2 1045.32C1607.64 1045.32 1607.08 1045.2 1606.57 1044.96C1606.06 1044.72 1605.61 1044.37 1605.25 1043.94C1604.75 1043.34 1604.17 1042.29 1603.52 1040.79L1600.92 1035.07C1599.61 1032.19 1596.83 1029.94 1592.6 1028.33C1590.29 1027.48 1587.26 1026.76 1583.53 1026.18C1589.34 1025.88 1594.19 1025.19 1598.09 1024.1C1605.37 1022.07 1609.01 1018.85 1609.01 1014.46C1609.01 1011.72 1607.59 1009.36 1604.73 1007.4C1600.27 1004.36 1592.83 1002.75 1582.43 1002.58L1573.53 1002.42H1525.34ZM1656.13 1013.5C1659.43 1007.7 1665.76 1004.8 1675.08 1004.8C1682.82 1004.8 1688.2 1006.84 1691.23 1010.93C1694.26 1015.02 1695.77 1020.13 1695.77 1026.25C1695.77 1033.32 1694.17 1038.65 1690.98 1042.29C1687.78 1045.91 1682.62 1047.73 1675.49 1047.73C1666.9 1047.73 1661.08 1045.56 1658.01 1041.24C1654.95 1036.92 1653.42 1032.08 1653.42 1026.73C1653.41 1021.06 1654.31 1016.65 1656.13 1013.5ZM1641.85 1043.26C1650.25 1048.42 1661 1051 1674.09 1051C1688.04 1051 1699.31 1048.28 1707.9 1042.85C1715.52 1038.01 1719.34 1032.43 1719.34 1026.12C1719.34 1019.91 1715.65 1014.42 1708.3 1009.65C1699.79 1004.12 1688.45 1001.36 1674.27 1001.36C1662.33 1001.36 1652.04 1003.67 1643.41 1008.26C1634.48 1013.05 1630.01 1018.97 1630.01 1025.99C1630.01 1032.69 1633.95 1038.44 1641.85 1043.26ZM1767.9 1006.58C1769.19 1006.15 1771.53 1005.92 1774.93 1005.92C1782.24 1005.92 1787.31 1006.61 1790.12 1007.96C1792.93 1009.32 1794.34 1011.87 1794.34 1015.59C1794.34 1020.36 1791.97 1023.43 1787.24 1024.8C1784.19 1025.68 1777.8 1026.12 1768.05 1026.12H1765.97V1009.35C1765.96 1007.95 1766.61 1007.03 1767.9 1006.58ZM1778.97 1049.91V1046.42L1771.45 1046.35C1769.03 1046.32 1767.51 1046.07 1766.89 1045.58C1766.27 1045.09 1765.96 1044.31 1765.96 1043.23V1029.52L1779.66 1029.69C1788.37 1029.79 1795.82 1029.16 1802.02 1027.79C1811.88 1025.58 1816.81 1021.72 1816.81 1016.2C1816.81 1010.47 1812.28 1006.52 1803.23 1004.35C1798.3 1003.19 1791.6 1002.59 1783.12 1002.53L1771.34 1002.43H1732.28V1005.92C1737.75 1005.97 1741.19 1006.18 1742.62 1006.55C1744.04 1006.92 1744.75 1007.9 1744.75 1009.46L1744.64 1043.23C1744.64 1044.29 1744.41 1045.01 1743.95 1045.4C1743.48 1045.79 1742.69 1046.06 1741.58 1046.19C1740.69 1046.29 1739.85 1046.36 1739.07 1046.38C1738.27 1046.4 1736.01 1046.42 1732.28 1046.42V1049.91H1778.97ZM1856.31 1013.5C1859.62 1007.7 1865.94 1004.8 1875.26 1004.8C1883 1004.8 1888.39 1006.84 1891.41 1010.93C1894.43 1015.02 1895.95 1020.13 1895.95 1026.25C1895.95 1033.32 1894.35 1038.65 1891.15 1042.29C1887.95 1045.91 1882.79 1047.73 1875.66 1047.73C1867.08 1047.73 1861.25 1045.56 1858.19 1041.24C1855.16 1037.01 1853.55 1031.93 1853.6 1026.73C1853.6 1021.06 1854.5 1016.65 1856.31 1013.5ZM1842.03 1043.26C1850.43 1048.42 1861.18 1051 1874.28 1051C1888.22 1051 1899.49 1048.28 1908.08 1042.85C1915.7 1038.01 1919.53 1032.43 1919.53 1026.12C1919.53 1019.91 1915.84 1014.42 1908.49 1009.65C1899.97 1004.12 1888.62 1001.36 1874.45 1001.36C1862.51 1001.36 1852.22 1003.67 1843.6 1008.26C1834.66 1013.05 1830.19 1018.97 1830.19 1025.99C1830.19 1032.69 1834.14 1038.44 1842.03 1043.26ZM1932.17 1049.91V1046.42C1935.75 1046.42 1937.94 1046.4 1938.73 1046.38C1939.51 1046.36 1940.49 1046.29 1941.64 1046.19C1942.57 1046.1 1943.28 1045.91 1943.78 1045.61C1944.28 1045.31 1944.54 1044.67 1944.54 1043.69V1010.97C1944.54 1008.68 1944.25 1007.29 1943.69 1006.81C1943.14 1006.32 1941.35 1006.07 1938.35 1006.02L1932.17 1005.92V1002.43H1978.91V1005.92L1969.72 1006.02C1967.91 1006.05 1966.78 1006.29 1966.31 1006.77C1966.07 1007.03 1965.89 1007.33 1965.77 1007.66C1965.65 1007.99 1965.59 1008.34 1965.61 1008.69V1040.8L1965.73 1042.79C1965.81 1044.29 1966.45 1045.27 1967.63 1045.74C1968.82 1046.22 1971.67 1046.45 1976.13 1046.45C1981.68 1046.45 1986.22 1046.14 1989.74 1045.5C1993.03 1044.96 1996.18 1043.77 1999.01 1042.02C2001.24 1040.58 2003.04 1038.84 2004.41 1036.78C2005.78 1034.73 2006.59 1033.2 2006.81 1032.19H2013L2011.49 1049.92H1932.17V1049.91Z" fill="white"/>
</svg>
