<svg width="3228" height="1152" viewBox="0 0 3228 1152" fill="none" xmlns="http://www.w3.org/2000/svg">
<g clip-path="url(#clip0)">
<path d="M1866.83 354.693V374.293H2034.96C2046.17 374.293 2063.03 374.293 2074.25 385.491C2085.48 396.71 2085.48 413.515 2085.48 424.734V592.807C2085.48 604.026 2085.48 620.853 2074.25 632.029C2063.03 643.248 2046.17 643.248 2034.96 643.248H1953.7C1939.71 643.248 1921.45 643.248 1914.44 627.839C1907.5 612.408 1917.23 598.393 1925.69 587.217L2034.97 441.497H1866.83L1799.52 531.169C1788.25 546.173 1778.51 559.214 1778.51 576.002C1778.51 592.807 1787.57 604.927 1799.52 620.857L1816.34 643.253C1833.17 665.644 1849.96 688.133 1872.42 699.306C1894.87 710.456 1921.44 710.456 1957.94 710.456H2030.74C2072.83 710.456 2135.88 710.456 2177.98 668.46C2220 626.443 2220 564.804 2220 542.362V475.137C2220 452.695 2220 391.081 2177.98 349.06C2135.88 307 2072.83 307.111 2030.74 307.064L1914.44 307C1903.28 307 1889.19 307 1877.96 318.24C1866.83 329.464 1866.83 343.474 1866.83 354.693Z" fill="white"/>
<path d="M1664.97 441.501H1833.2L1631.3 710.456H1463.12L1664.97 441.501Z" fill="white"/>
<path d="M1009 489.151C1009 477.954 1009 463.944 1020.21 452.699C1031.39 441.501 1045.47 441.501 1056.66 441.501H1338.43C1374.85 441.501 1401.46 441.501 1423.92 452.699C1446.28 463.944 1463.13 486.361 1479.91 508.777L1496.76 531.173C1508.74 547.078 1517.84 559.219 1517.84 576.007C1517.84 592.812 1508.01 605.832 1496.76 620.862L1429.5 710.457H1261.31L1370.6 564.805C1379 553.586 1388.86 539.618 1381.81 524.162C1374.85 508.777 1356.62 508.777 1342.61 508.777H1210.83V845.005H1076.28V508.773H1009V489.151Z" fill="white"/>
</g>
<defs>
<clipPath id="clip0">
<rect width="1211" height="538" fill="white" transform="translate(1009 307)"/>
</clipPath>
</defs>
</svg>
