<svg width="3228" height="1152" viewBox="0 0 3228 1152" fill="none" xmlns="http://www.w3.org/2000/svg">
<path d="M1751.48 531.088H1736.05V428.632H1700.98V414.596H1785.15V428.632H1750.08V531.088H1751.48Z" fill="white"/>
<path d="M1835.66 531.088H1820.23V414.596H1853.9C1859.51 414.596 1866.52 414.596 1872.14 416C1877.75 417.403 1881.96 420.21 1886.17 423.017C1890.37 425.825 1893.18 430.035 1894.58 434.246C1897.39 439.86 1897.39 445.474 1897.39 451.088C1897.39 463.719 1893.18 472.14 1886.17 479.158C1877.75 486.175 1867.93 488.982 1853.9 488.982H1835.66V531.088ZM1835.66 473.544H1853.9C1863.72 473.544 1870.73 472.14 1874.94 467.93C1880.55 463.719 1883.36 456.702 1881.96 451.088C1881.96 442.667 1879.15 437.053 1874.94 434.246C1870.73 430.035 1863.72 428.632 1853.9 428.632H1835.66V473.544Z" fill="white"/>
<path d="M2025.06 531.088H2009.62V437.053L1953.51 531.088H1936.67V414.596H1952.1V508.632L2008.22 414.596H2025.06V531.088Z" fill="white"/>
<path d="M2159.74 531.088H2144.3V477.754H2085.38V531.088H2069.95V414.596H2085.38V463.719H2144.3V414.596H2159.74V531.088Z" fill="white"/>
<path d="M2295.82 531.088H2280.38V437.053L2224.27 531.088H2207.43V414.596H2222.86V508.632L2278.98 414.596H2295.82V531.088Z" fill="white"/>
<path d="M2379.99 531.088H2364.56V428.632H2329.49V414.596H2413.66V428.632H2378.59V531.088H2379.99Z" fill="white"/>
<path d="M2537.12 531.088H2521.69V437.053L2465.57 531.088H2448.74V414.596H2464.17V508.632L2520.29 414.596H2537.12V531.088Z" fill="white"/>
<path d="M1585.94 254.598H1577.52V898.808H1585.94V254.598Z" fill="white"/>
<path d="M1715.01 750.036H1702.38V657.404H1730.44C1734.65 657.404 1740.26 657.404 1744.47 658.808C1748.68 660.211 1751.48 661.615 1755.69 664.422C1758.5 667.229 1761.3 670.036 1762.71 672.843C1764.11 677.053 1765.51 681.264 1765.51 685.474C1765.51 693.895 1762.71 702.316 1755.69 707.93C1750.08 713.544 1740.26 714.948 1729.04 714.948H1715.01V750.036ZM1715.01 703.72H1729.04C1734.65 703.72 1741.66 702.316 1745.87 699.509C1750.08 696.702 1751.48 691.088 1751.48 685.474C1751.48 679.86 1750.08 675.65 1745.87 671.439C1740.26 668.632 1734.65 667.229 1729.04 667.229H1715.01V703.72Z" fill="white"/>
<path d="M1832.85 751.441C1827.24 751.441 1820.23 750.038 1814.62 748.634C1809 745.827 1804.79 743.02 1801.99 738.81C1797.78 734.599 1794.97 728.985 1793.57 723.371C1792.17 716.353 1790.77 710.739 1790.77 703.722C1790.77 696.704 1792.17 689.687 1793.57 684.073C1794.97 678.459 1797.78 672.845 1801.99 668.634C1806.2 664.424 1810.41 661.617 1814.62 658.81C1820.23 656.003 1825.84 656.003 1831.45 656.003C1837.06 656.003 1844.08 657.406 1849.69 660.213C1855.3 663.02 1859.51 665.827 1862.31 670.038C1866.52 674.248 1869.33 679.862 1870.73 685.476C1872.14 691.09 1873.54 698.108 1873.54 705.125C1873.54 712.143 1872.14 719.16 1870.73 726.178C1869.33 731.792 1866.52 737.406 1862.31 741.617C1858.11 745.827 1853.9 748.634 1849.69 750.038C1844.08 750.038 1838.47 751.441 1832.85 751.441ZM1834.26 740.213C1842.67 740.213 1849.69 737.406 1855.3 730.388C1860.91 724.774 1862.31 714.95 1862.31 702.318C1862.31 696.704 1862.31 691.09 1860.91 685.476C1859.51 681.266 1858.11 677.055 1855.3 674.248C1852.49 671.441 1849.69 668.634 1845.48 667.231C1841.27 665.827 1837.06 664.424 1832.85 664.424C1828.64 664.424 1824.44 665.827 1821.63 667.231C1817.42 668.634 1814.62 671.441 1811.81 674.248C1809 677.055 1807.6 681.266 1806.2 685.476C1803.39 691.09 1803.39 696.704 1803.39 702.318C1803.39 707.932 1803.39 713.546 1806.2 719.16C1807.6 723.371 1809 727.581 1811.81 730.388C1814.62 733.195 1817.42 736.003 1821.63 737.406C1825.84 738.81 1830.05 740.213 1834.26 740.213Z" fill="white"/>
<path d="M1970.34 747.229C1967.53 748.633 1964.73 750.036 1961.92 750.036C1957.71 750.036 1954.91 751.44 1950.7 751.44C1943.69 751.44 1938.07 750.036 1931.06 748.633C1925.45 747.229 1921.24 743.019 1917.03 738.808C1912.82 734.598 1910.02 728.984 1907.21 723.37C1904.4 717.756 1904.4 710.738 1904.4 703.72C1904.4 696.703 1905.81 689.685 1907.21 682.668C1908.61 677.054 1912.82 671.44 1917.03 667.229C1921.24 663.019 1925.45 660.212 1931.06 657.405C1936.67 654.598 1943.69 654.598 1949.3 654.598C1953.51 654.598 1957.71 654.598 1961.92 656.001C1964.73 656.001 1967.53 657.405 1970.34 658.808L1967.53 670.036C1964.73 668.633 1961.92 668.633 1959.12 667.229C1956.31 667.229 1953.51 667.229 1950.7 667.229C1939.48 667.229 1931.06 670.036 1925.45 677.054C1919.84 682.668 1917.03 692.492 1917.03 705.124C1917.03 710.738 1918.43 716.352 1919.84 720.563C1921.24 724.773 1924.04 728.984 1926.85 731.791C1929.66 734.598 1933.86 737.405 1938.07 738.808C1942.28 740.212 1947.89 741.615 1953.51 741.615C1956.31 741.615 1959.12 741.615 1961.92 740.212C1964.73 740.212 1967.53 738.808 1970.34 737.405V747.229Z" fill="white"/>
<path d="M2054.52 724.772H2013.83L2005.41 750.036H1992.79L2027.86 657.404H2040.49L2075.56 750.036H2062.93L2054.52 724.772ZM2018.04 713.544H2050.31L2034.88 670.036L2018.04 713.544Z" fill="white"/>
<path d="M2124.66 750.038H2112.04V667.231H2083.98V656.003H2151.32V667.231H2123.26V750.038H2124.66Z" fill="white"/>
<path d="M2214.45 751.441C2208.84 751.441 2201.82 750.038 2197.61 748.634C2192 745.827 2187.79 743.02 2184.99 738.81C2180.78 734.599 2177.97 728.985 2176.57 723.371C2175.17 716.353 2173.76 710.739 2173.76 703.722C2173.76 696.704 2175.17 689.687 2176.57 684.073C2177.97 678.459 2180.78 672.845 2184.99 668.634C2189.2 664.424 2193.4 661.617 2197.61 658.81C2203.22 656.003 2208.84 656.003 2214.45 656.003C2220.06 656.003 2227.07 657.406 2232.69 660.213C2238.3 663.02 2242.51 665.827 2245.31 670.038C2249.52 674.248 2252.33 679.862 2253.73 685.476C2255.13 691.09 2256.54 698.108 2256.54 705.125C2256.54 712.143 2255.13 719.16 2253.73 726.178C2252.33 731.792 2249.52 737.406 2245.31 741.617C2241.1 745.827 2236.89 748.634 2232.69 750.038C2225.67 750.038 2220.06 751.441 2214.45 751.441ZM2215.85 740.213C2224.27 740.213 2231.28 737.406 2236.89 730.388C2242.51 724.774 2243.91 714.95 2243.91 702.318C2243.91 696.704 2243.91 691.09 2242.51 685.476C2241.1 681.266 2239.7 677.055 2236.89 674.248C2234.09 671.441 2231.28 668.634 2227.07 667.231C2222.87 665.827 2218.66 664.424 2214.45 664.424C2210.24 664.424 2206.03 665.827 2203.22 667.231C2199.02 668.634 2196.21 671.441 2193.4 674.248C2190.6 677.055 2189.2 681.266 2187.79 685.476C2186.39 691.09 2184.99 696.704 2184.99 702.318C2184.99 707.932 2184.99 713.546 2187.79 719.16C2189.2 723.371 2190.6 727.581 2193.4 730.388C2196.21 733.195 2199.02 736.003 2203.22 737.406C2207.43 738.81 2211.64 740.213 2215.85 740.213Z" fill="white"/>
<path d="M2379.99 750.036H2367.37L2361.76 677.053L2337.91 750.036H2325.28L2301.43 677.053L2295.82 750.036H2283.19L2291.61 657.404H2305.64L2330.89 737.404L2356.14 657.404H2370.17L2379.99 750.036Z" fill="white"/>
<path d="M1137.01 630.738C1107.54 664.422 1055.64 665.826 1023.37 636.352C991.102 606.878 988.296 554.948 1017.76 522.668C1047.22 488.984 1099.13 487.58 1131.39 517.054C1165.06 546.527 1167.87 597.054 1137.01 630.738Z" fill="url(#paint0_radial)"/>
<path d="M1099.13 300.913C1106.14 307.931 1111.75 313.545 1117.36 320.562C1137 344.422 1152.44 369.685 1165.06 397.755C1184.7 401.966 1202.94 403.369 1222.58 401.966H1225.39H1228.19C1267.48 397.755 1319.38 383.72 1367.08 336.001C1368.49 334.597 1369.89 333.194 1371.29 330.387C1364.28 321.966 1355.86 313.545 1348.84 305.124C1214.16 168.983 1000.92 153.545 846.6 268.632C965.848 211.089 1047.22 250.387 1099.13 300.913Z" fill="url(#paint1_linear)"/>
<path d="M825.558 692.492C828.364 682.667 831.169 674.246 833.975 665.825C843.796 637.755 859.228 611.088 877.466 585.825C870.451 567.58 862.034 549.334 852.213 533.895C852.213 532.492 850.81 532.492 850.81 531.088L849.407 528.281C826.961 496.001 787.679 458.106 723.145 441.264C720.339 441.264 718.936 439.86 716.13 439.86C711.921 451.088 709.115 460.913 704.907 472.141C654.402 657.404 748.397 849.685 923.762 925.474C814.334 852.492 807.32 761.264 825.558 692.492Z" fill="url(#paint2_linear)"/>
<path d="M1302.55 733.192C1292.73 735.999 1284.31 737.403 1275.89 738.806C1246.43 744.42 1215.57 744.42 1186.11 741.613C1173.48 755.648 1162.26 772.491 1153.84 789.333C1153.84 790.736 1152.44 790.736 1152.44 792.14C1152.44 793.543 1151.03 793.543 1151.03 794.947C1134.2 831.438 1121.57 883.368 1138.41 947.929C1138.41 950.736 1139.81 952.14 1139.81 954.947C1151.03 953.543 1162.26 950.736 1173.48 947.929C1358.67 898.806 1477.91 720.561 1455.47 529.684C1445.65 663.017 1371.29 713.543 1302.55 733.192Z" fill="url(#paint3_linear)"/>
<path d="M846.602 268.632C846.602 268.632 762.427 320.562 718.937 425.825C800.306 442.667 866.243 501.614 891.496 580.211C902.719 573.193 934.986 547.93 956.03 476.351C982.685 390.737 1033.19 327.579 1097.72 299.509C1099.13 300.912 1016.36 183.018 846.602 268.632Z" fill="url(#paint4_linear)"/>
<path d="M1111.75 886.178C1111.75 842.669 1124.38 785.125 1172.08 730.389V728.985C1163.66 720.564 1137 699.511 1065.46 716.353C978.474 736.003 881.673 734.599 824.153 691.09C824.153 691.09 763.828 821.617 922.358 925.476C922.358 925.476 1009.34 971.792 1121.57 956.353C1115.96 933.897 1111.75 910.038 1111.75 886.178Z" fill="url(#paint5_linear)"/>
<path d="M1382.52 341.615C1339.03 390.737 1277.3 418.808 1211.36 418.808C1194.53 418.808 1177.69 417.404 1160.86 413.194H1159.45C1156.65 425.825 1153.84 459.509 1201.54 511.439C1263.27 577.404 1309.56 661.615 1299.74 733.194C1299.74 733.194 1442.84 720.562 1454.07 531.088C1455.47 531.088 1452.66 432.843 1382.52 341.615Z" fill="url(#paint6_linear)"/>
<defs>
<radialGradient id="paint0_radial" cx="0" cy="0" r="1" gradientUnits="userSpaceOnUse" gradientTransform="translate(1174.96 523.831) scale(108.857 108.903)">
<stop stop-color="#D1D1D1"/>
<stop offset="1" stop-color="#6D6D6D"/>
</radialGradient>
<linearGradient id="paint1_linear" x1="967.073" y1="217.276" x2="1305.76" y2="353.618" gradientUnits="userSpaceOnUse">
<stop stop-color="#D1D1D1"/>
<stop offset="1" stop-color="#6D6D6D"/>
</linearGradient>
<linearGradient id="paint2_linear" x1="819.375" y1="847.876" x2="768.083" y2="486.254" gradientUnits="userSpaceOnUse">
<stop stop-color="#D1D1D1"/>
<stop offset="1" stop-color="#6D6D6D"/>
</linearGradient>
<linearGradient id="paint3_linear" x1="1440.26" y1="660.285" x2="1152.73" y2="885.345" gradientUnits="userSpaceOnUse">
<stop stop-color="#D1D1D1"/>
<stop offset="1" stop-color="#6D6D6D"/>
</linearGradient>
<linearGradient id="paint4_linear" x1="831.648" y1="476.722" x2="983.989" y2="243.076" gradientUnits="userSpaceOnUse">
<stop stop-color="#D1D1D1"/>
<stop offset="1" stop-color="#6D6D6D"/>
</linearGradient>
<linearGradient id="paint5_linear" x1="1119.67" y1="809.994" x2="846.568" y2="837.822" gradientUnits="userSpaceOnUse">
<stop stop-color="#D1D1D1"/>
<stop offset="1" stop-color="#6D6D6D"/>
</linearGradient>
<linearGradient id="paint6_linear" x1="1295.49" y1="414.798" x2="1351.21" y2="695.965" gradientUnits="userSpaceOnUse">
<stop stop-color="#D1D1D1"/>
<stop offset="1" stop-color="#6D6D6D"/>
</linearGradient>
</defs>
</svg>
