<svg width="48" height="48" viewBox="0 0 48 48" fill="none" xmlns="http://www.w3.org/2000/svg">
<path fill-rule="evenodd" clip-rule="evenodd" d="M16 30C17.1046 30 18 30.8954 18 32C18 33.1046 17.1046 34 16 34C14.8954 34 14 33.1046 14 32C14 30.8954 14.8954 30 16 30ZM24 30C25.1046 30 26 30.8954 26 32C26 33.1046 25.1046 34 24 34C22.8954 34 22 33.1046 22 32C22 30.8954 22.8954 30 24 30ZM32 30C33.1046 30 34 30.8954 34 32C34 33.1046 33.1046 34 32 34C30.8954 34 30 33.1046 30 32C30 30.8954 30.8954 30 32 30ZM16 22C17.1046 22 18 22.8954 18 24C18 25.1046 17.1046 26 16 26C14.8954 26 14 25.1046 14 24C14 22.8954 14.8954 22 16 22ZM24 22C25.1046 22 26 22.8954 26 24C26 25.1046 25.1046 26 24 26C22.8954 26 22 25.1046 22 24C22 22.8954 22.8954 22 24 22ZM32 22C33.1046 22 34 22.8954 34 24C34 25.1046 33.1046 26 32 26C30.8954 26 30 25.1046 30 24C30 22.8954 30.8954 22 32 22ZM16 14C17.1046 14 18 14.8954 18 16C18 17.1046 17.1046 18 16 18C14.8954 18 14 17.1046 14 16C14 14.8954 14.8954 14 16 14ZM24 14C25.1046 14 26 14.8954 26 16C26 17.1046 25.1046 18 24 18C22.8954 18 22 17.1046 22 16C22 14.8954 22.8954 14 24 14ZM32 14C33.1046 14 34 14.8954 34 16C34 17.1046 33.1046 18 32 18C30.8954 18 30 17.1046 30 16C30 14.8954 30.8954 14 32 14Z" fill="black"/>
</svg>
