<svg width="34" height="34" viewBox="0 0 34 34" fill="none" xmlns="http://www.w3.org/2000/svg"><path fill-rule="evenodd" clip-rule="evenodd" d="M19.2204 17.2003L26.7818 9.63888C27.3404 9.08031 27.3404 8.17745 26.7818 7.61888C26.2233 7.06031 25.3204 7.06031 24.7618 7.61888L17.2004 15.1803L9.639 7.61888C9.08043 7.06031 8.17757 7.06031 7.619 7.61888C7.06043 8.17745 7.06043 9.08031 7.619 9.63888L15.1804 17.2003L7.619 24.7617C7.06043 25.3203 7.06043 26.2232 7.619 26.7817C7.89757 27.0603 8.26329 27.2003 8.629 27.2003C8.99471 27.2003 9.36043 27.0603 9.639 26.7817L17.2004 19.2203L24.7618 26.7817C25.0404 27.0603 25.4061 27.2003 25.7718 27.2003C26.1376 27.2003 26.5033 27.0603 26.7818 26.7817C27.3404 26.2232 27.3404 25.3203 26.7818 24.7617L19.2204 17.2003Z" fill="white"/></svg>
