<svg width="578" height="207" viewBox="0 0 578 207" fill="none" xmlns="http://www.w3.org/2000/svg">
<path d="M0.2276 1.7386H31.4088L39.83 42.7066L48.365 1.7386H77.2702L86.6018 42.7066L96.5024 1.7386H123.132L101.51 81.3986H71.4664L60.883 38.1546L51.8928 81.3986H21.8496L0.2276 1.7386Z" fill="#090809"/>
<path d="M127.909 1.7386H190.499V23.5882H157.953V31.7818H187.085V50.2174H157.953V59.549H190.499V81.3986H127.909V1.7386Z" fill="#090809"/>
<path d="M197.923 1.7386H244.012C253.04 1.7386 259.754 3.44561 264.155 6.85961C268.555 10.2736 270.755 15.6601 270.755 23.0192C270.755 27.116 269.731 30.6438 267.682 33.6026C265.71 36.4855 262.941 38.5719 259.375 39.8616C269.238 42.1376 274.169 48.4725 274.169 58.8662C274.169 66.3011 271.817 71.9153 267.113 75.7086C262.41 79.502 254.671 81.3986 243.898 81.3986H197.923V1.7386ZM234.794 61.825C238.36 61.825 240.788 61.3698 242.078 60.4594C243.443 59.549 244.126 57.9558 244.126 55.6798C244.126 53.4797 243.443 51.9244 242.078 51.014C240.712 50.1036 238.208 49.6484 234.567 49.6484H227.966V61.825H234.794ZM233.315 32.3508C235.894 32.3508 237.753 31.9335 238.891 31.099C240.105 30.1886 240.712 28.7471 240.712 26.7746C240.712 24.8021 240.105 23.3985 238.891 22.564C237.753 21.7295 235.97 21.3122 233.542 21.3122H227.966V32.3508H233.315Z" fill="#090809"/>
<path d="M315.177 83.1056C303.797 83.1056 295.072 81.0951 289.003 77.0742C282.934 72.9774 279.33 66.4529 278.192 57.5006H308.235C308.463 59.0938 309.07 60.2697 310.056 61.0284C311.042 61.7871 312.749 62.1664 315.177 62.1664C317.832 62.1664 319.653 61.9009 320.64 61.3698C321.626 60.7629 322.119 59.8525 322.119 58.6386C322.119 57.9558 321.929 57.3868 321.55 56.9316C321.171 56.4764 320.412 56.0212 319.274 55.566C318.212 55.1108 316.656 54.6556 314.608 54.2004C312.636 53.6693 309.98 53.0624 306.642 52.3796C302.849 51.6209 299.359 50.6347 296.173 49.4208C292.986 48.1311 290.217 46.462 287.865 44.4136C285.513 42.3652 283.692 39.8616 282.403 36.9028C281.113 33.8681 280.468 30.3024 280.468 26.2056C280.468 21.8053 281.303 17.9741 282.972 14.7118C284.641 11.3737 286.993 8.64247 290.027 6.5182C293.138 4.31807 296.817 2.68694 301.066 1.62481C305.314 0.562673 310.018 0.0316057 315.177 0.0316057C326.026 0.0316057 334.333 2.23174 340.099 6.63201C345.865 11.0323 349.317 16.9878 350.455 24.4986H320.412C320.26 23.4365 319.767 22.6019 318.932 21.995C318.174 21.3122 316.922 20.9708 315.177 20.9708C312.067 20.9708 310.511 22.1467 310.511 24.4986C310.511 25.1814 310.701 25.7883 311.08 26.3194C311.535 26.8505 312.256 27.3436 313.242 27.7988C314.229 28.1781 315.556 28.5575 317.225 28.9368C318.97 29.3161 321.133 29.7334 323.712 30.1886C327.05 30.7955 330.388 31.6301 333.727 32.6922C337.141 33.6785 340.213 35.1199 342.944 37.0166C345.676 38.9133 347.876 41.3789 349.545 44.4136C351.29 47.3724 352.162 51.1278 352.162 55.6798C352.162 60.3835 351.29 64.4803 349.545 67.9702C347.8 71.3842 345.296 74.2292 342.034 76.5052C338.848 78.7053 334.978 80.3365 330.426 81.3986C325.874 82.5366 320.791 83.1056 315.177 83.1056Z" fill="#090809"/>
<path d="M375.837 25.8642H355.012V1.7386H426.706V25.8642H405.88V81.3986H375.837V25.8642Z" fill="#090809"/>
<path d="M433.525 1.7386H496.115V23.5882H463.568V31.7818H492.701V50.2174H463.568V59.549H496.115V81.3986H433.525V1.7386Z" fill="#090809"/>
<path d="M503.538 1.7386H539.385C545.758 1.7386 551.183 2.38347 555.659 3.67321C560.211 4.88707 563.928 6.7458 566.811 9.24941C569.694 11.6771 571.818 14.6739 573.184 18.2396C574.549 21.8053 575.232 25.9021 575.232 30.53C575.232 35.5372 574.132 39.9754 571.932 43.8446C569.808 47.7138 566.47 50.8623 561.918 53.29L577.508 81.3986H545.417L534.151 57.9558H533.581V81.3986H503.538V1.7386ZM536.996 37.4718C539.727 37.4718 541.661 36.789 542.799 35.4234C543.937 34.0578 544.506 32.4267 544.506 30.53C544.506 28.6333 543.899 27.0022 542.686 25.6366C541.548 24.271 539.651 23.5882 536.996 23.5882H533.581V37.4718H536.996Z" fill="#090809"/>
<path d="M38.123 206.389C26.743 206.389 18.0183 204.378 11.949 200.358C5.87967 196.261 2.276 189.736 1.138 180.784H31.1812C31.4088 182.377 32.0157 183.553 33.002 184.312C33.9883 185.07 35.6953 185.45 38.123 185.45C40.7783 185.45 42.5991 185.184 43.5854 184.653C44.5717 184.046 45.0648 183.136 45.0648 181.922C45.0648 181.239 44.8751 180.67 44.4958 180.215C44.1165 179.76 43.3578 179.305 42.2198 178.849C41.1577 178.394 39.6024 177.939 37.554 177.484C35.5815 176.953 32.9261 176.346 29.588 175.663C25.7947 174.904 22.3048 173.918 19.1184 172.704C15.932 171.414 13.1629 169.745 10.811 167.697C8.45913 165.649 6.63833 163.145 5.3486 160.186C4.05887 157.151 3.414 153.586 3.414 149.489C3.414 145.089 4.24853 141.257 5.9176 137.995C7.58667 134.657 9.93853 131.926 12.9732 129.802C16.0837 127.601 19.7633 125.97 24.0118 124.908C28.2603 123.846 32.9641 123.315 38.123 123.315C48.9719 123.315 57.2793 125.515 63.0452 129.915C68.8111 134.316 72.263 140.271 73.401 147.782H43.3578C43.2061 146.72 42.7129 145.885 41.8784 145.278C41.1197 144.596 39.8679 144.254 38.123 144.254C35.0125 144.254 33.4572 145.43 33.4572 147.782C33.4572 148.465 33.6469 149.072 34.0262 149.603C34.4814 150.134 35.2021 150.627 36.1884 151.082C37.1747 151.461 38.5023 151.841 40.1714 152.22C41.9163 152.599 44.0785 153.017 46.658 153.472C49.9961 154.079 53.3343 154.913 56.6724 155.976C60.0864 156.962 63.159 158.403 65.8902 160.3C68.6214 162.197 70.8215 164.662 72.4906 167.697C74.2355 170.656 75.108 174.411 75.108 178.963C75.108 183.667 74.2355 187.764 72.4906 191.254C70.7457 194.668 68.2421 197.513 64.9798 199.789C61.7934 201.989 57.9242 203.62 53.3722 204.682C48.8202 205.82 43.7371 206.389 38.123 206.389Z" fill="#090809"/>
<path d="M98.7828 149.148H77.9574V125.022H149.651V149.148H128.826V204.682H98.7828V149.148Z" fill="#090809"/>
<path d="M240.709 125.022H276.556C282.55 125.022 287.936 125.856 292.716 127.526C297.571 129.119 301.706 131.509 305.12 134.695C308.534 137.881 311.151 141.864 312.972 146.644C314.869 151.424 315.817 156.924 315.817 163.145V165.421C315.817 171.794 314.869 177.446 312.972 182.377C311.076 187.233 308.344 191.329 304.779 194.668C301.289 197.93 297.04 200.433 292.033 202.178C287.102 203.847 281.563 204.682 275.418 204.682H240.709V125.022ZM275.418 180.556C276.86 180.556 278.149 180.329 279.287 179.874C280.501 179.418 281.525 178.622 282.36 177.484C283.27 176.346 283.953 174.79 284.408 172.818C284.864 170.845 285.091 168.38 285.091 165.421V163.145C285.091 157.758 284.295 154.079 282.701 152.106C281.108 150.134 278.68 149.148 275.418 149.148H270.752V180.556H275.418Z" fill="#090809"/>
<mask id="path-2-inside-1" fill="white">
<path d="M0.2276 1.7386H31.4088L39.83 42.7066L48.365 1.7386H77.2702L86.6018 42.7066L96.5024 1.7386H123.132L101.51 81.3986H71.4664L60.883 38.1546L51.8928 81.3986H21.8496L0.2276 1.7386Z"/>
<path d="M127.909 1.7386H190.499V23.5882H157.953V31.7818H187.085V50.2174H157.953V59.549H190.499V81.3986H127.909V1.7386Z"/>
<path d="M197.923 1.7386H244.012C253.04 1.7386 259.754 3.44561 264.155 6.85961C268.555 10.2736 270.755 15.6601 270.755 23.0192C270.755 27.116 269.731 30.6438 267.682 33.6026C265.71 36.4855 262.941 38.5719 259.375 39.8616C269.238 42.1376 274.169 48.4725 274.169 58.8662C274.169 66.3011 271.817 71.9153 267.113 75.7086C262.41 79.502 254.671 81.3986 243.898 81.3986H197.923V1.7386ZM234.794 61.825C238.36 61.825 240.788 61.3698 242.078 60.4594C243.443 59.549 244.126 57.9558 244.126 55.6798C244.126 53.4797 243.443 51.9244 242.078 51.014C240.712 50.1036 238.208 49.6484 234.567 49.6484H227.966V61.825H234.794ZM233.315 32.3508C235.894 32.3508 237.753 31.9335 238.891 31.099C240.105 30.1886 240.712 28.7471 240.712 26.7746C240.712 24.8021 240.105 23.3985 238.891 22.564C237.753 21.7295 235.97 21.3122 233.542 21.3122H227.966V32.3508H233.315Z"/>
<path d="M315.177 83.1056C303.797 83.1056 295.072 81.0951 289.003 77.0742C282.934 72.9774 279.33 66.4529 278.192 57.5006H308.235C308.463 59.0938 309.07 60.2697 310.056 61.0284C311.042 61.7871 312.749 62.1664 315.177 62.1664C317.832 62.1664 319.653 61.9009 320.64 61.3698C321.626 60.7629 322.119 59.8525 322.119 58.6386C322.119 57.9558 321.929 57.3868 321.55 56.9316C321.171 56.4764 320.412 56.0212 319.274 55.566C318.212 55.1108 316.656 54.6556 314.608 54.2004C312.636 53.6693 309.98 53.0624 306.642 52.3796C302.849 51.6209 299.359 50.6347 296.173 49.4208C292.986 48.1311 290.217 46.462 287.865 44.4136C285.513 42.3652 283.692 39.8616 282.403 36.9028C281.113 33.8681 280.468 30.3024 280.468 26.2056C280.468 21.8053 281.303 17.9741 282.972 14.7118C284.641 11.3737 286.993 8.64247 290.027 6.5182C293.138 4.31807 296.817 2.68694 301.066 1.62481C305.314 0.562673 310.018 0.0316057 315.177 0.0316057C326.026 0.0316057 334.333 2.23174 340.099 6.63201C345.865 11.0323 349.317 16.9878 350.455 24.4986H320.412C320.26 23.4365 319.767 22.6019 318.932 21.995C318.174 21.3122 316.922 20.9708 315.177 20.9708C312.067 20.9708 310.511 22.1467 310.511 24.4986C310.511 25.1814 310.701 25.7883 311.08 26.3194C311.535 26.8505 312.256 27.3436 313.242 27.7988C314.229 28.1781 315.556 28.5575 317.225 28.9368C318.97 29.3161 321.133 29.7334 323.712 30.1886C327.05 30.7955 330.388 31.6301 333.727 32.6922C337.141 33.6785 340.213 35.1199 342.944 37.0166C345.676 38.9133 347.876 41.3789 349.545 44.4136C351.29 47.3724 352.162 51.1278 352.162 55.6798C352.162 60.3835 351.29 64.4803 349.545 67.9702C347.8 71.3842 345.296 74.2292 342.034 76.5052C338.848 78.7053 334.978 80.3365 330.426 81.3986C325.874 82.5366 320.791 83.1056 315.177 83.1056Z"/>
<path d="M375.837 25.8642H355.012V1.7386H426.706V25.8642H405.88V81.3986H375.837V25.8642Z"/>
<path d="M433.525 1.7386H496.115V23.5882H463.568V31.7818H492.701V50.2174H463.568V59.549H496.115V81.3986H433.525V1.7386Z"/>
<path d="M503.538 1.7386H539.385C545.758 1.7386 551.183 2.38347 555.659 3.67321C560.211 4.88707 563.928 6.7458 566.811 9.24941C569.694 11.6771 571.818 14.6739 573.184 18.2396C574.549 21.8053 575.232 25.9021 575.232 30.53C575.232 35.5372 574.132 39.9754 571.932 43.8446C569.808 47.7138 566.47 50.8623 561.918 53.29L577.508 81.3986H545.417L534.151 57.9558H533.581V81.3986H503.538V1.7386ZM536.996 37.4718C539.727 37.4718 541.661 36.789 542.799 35.4234C543.937 34.0578 544.506 32.4267 544.506 30.53C544.506 28.6333 543.899 27.0022 542.686 25.6366C541.548 24.271 539.651 23.5882 536.996 23.5882H533.581V37.4718H536.996Z"/>
<path d="M38.123 206.389C26.743 206.389 18.0183 204.378 11.949 200.358C5.87967 196.261 2.276 189.736 1.138 180.784H31.1812C31.4088 182.377 32.0157 183.553 33.002 184.312C33.9883 185.07 35.6953 185.45 38.123 185.45C40.7783 185.45 42.5991 185.184 43.5854 184.653C44.5717 184.046 45.0648 183.136 45.0648 181.922C45.0648 181.239 44.8751 180.67 44.4958 180.215C44.1165 179.76 43.3578 179.305 42.2198 178.849C41.1577 178.394 39.6024 177.939 37.554 177.484C35.5815 176.953 32.9261 176.346 29.588 175.663C25.7947 174.904 22.3048 173.918 19.1184 172.704C15.932 171.414 13.1629 169.745 10.811 167.697C8.45913 165.649 6.63833 163.145 5.3486 160.186C4.05887 157.151 3.414 153.586 3.414 149.489C3.414 145.089 4.24853 141.257 5.9176 137.995C7.58667 134.657 9.93853 131.926 12.9732 129.802C16.0837 127.601 19.7633 125.97 24.0118 124.908C28.2603 123.846 32.9641 123.315 38.123 123.315C48.9719 123.315 57.2793 125.515 63.0452 129.915C68.8111 134.316 72.263 140.271 73.401 147.782H43.3578C43.2061 146.72 42.7129 145.885 41.8784 145.278C41.1197 144.596 39.8679 144.254 38.123 144.254C35.0125 144.254 33.4572 145.43 33.4572 147.782C33.4572 148.465 33.6469 149.072 34.0262 149.603C34.4814 150.134 35.2021 150.627 36.1884 151.082C37.1747 151.461 38.5023 151.841 40.1714 152.22C41.9163 152.599 44.0785 153.017 46.658 153.472C49.9961 154.079 53.3343 154.913 56.6724 155.976C60.0864 156.962 63.159 158.403 65.8902 160.3C68.6214 162.197 70.8215 164.662 72.4906 167.697C74.2355 170.656 75.108 174.411 75.108 178.963C75.108 183.667 74.2355 187.764 72.4906 191.254C70.7457 194.668 68.2421 197.513 64.9798 199.789C61.7934 201.989 57.9242 203.62 53.3722 204.682C48.8202 205.82 43.7371 206.389 38.123 206.389Z"/>
<path d="M98.7828 149.148H77.9574V125.022H149.651V149.148H128.826V204.682H98.7828V149.148Z"/>
<path d="M194.025 206.389C188.335 206.389 183.138 205.744 178.434 204.454C173.806 203.089 169.785 201.04 166.371 198.309C163.033 195.578 160.454 192.126 158.633 187.953C156.812 183.705 155.902 178.66 155.902 172.818V125.022H185.945V169.404C185.945 171.376 186.021 173.159 186.172 174.753C186.324 176.346 186.665 177.673 187.197 178.736C187.803 179.798 188.638 180.632 189.7 181.239C190.762 181.77 192.204 182.036 194.025 182.036C195.845 182.036 197.287 181.77 198.349 181.239C199.411 180.632 200.208 179.798 200.739 178.736C201.346 177.673 201.725 176.346 201.877 174.753C202.029 173.159 202.104 171.376 202.104 169.404V125.022H232.148V172.818C232.148 178.66 231.237 183.705 229.416 187.953C227.596 192.126 224.978 195.578 221.564 198.309C218.226 201.04 214.205 203.089 209.501 204.454C204.874 205.744 199.715 206.389 194.025 206.389Z"/>
<path d="M240.709 125.022H276.556C282.55 125.022 287.936 125.856 292.716 127.526C297.571 129.119 301.706 131.509 305.12 134.695C308.534 137.881 311.151 141.864 312.972 146.644C314.869 151.424 315.817 156.924 315.817 163.145V165.421C315.817 171.794 314.869 177.446 312.972 182.377C311.076 187.233 308.344 191.329 304.779 194.668C301.289 197.93 297.04 200.433 292.033 202.178C287.102 203.847 281.563 204.682 275.418 204.682H240.709V125.022ZM275.418 180.556C276.86 180.556 278.149 180.329 279.287 179.874C280.501 179.418 281.525 178.622 282.36 177.484C283.27 176.346 283.953 174.79 284.408 172.818C284.864 170.845 285.091 168.38 285.091 165.421V163.145C285.091 157.758 284.295 154.079 282.701 152.106C281.108 150.134 278.68 149.148 275.418 149.148H270.752V180.556H275.418Z"/>
<path d="M323.183 125.022H353.226V204.682H323.183V125.022Z"/>
<path d="M401.536 206.389C395.922 206.389 390.611 205.592 385.604 203.999C380.673 202.406 376.348 199.978 372.631 196.716C368.914 193.378 365.955 189.129 363.755 183.97C361.63 178.811 360.568 172.628 360.568 165.421V163.145C360.568 156.317 361.63 150.437 363.755 145.506C365.955 140.499 368.914 136.364 372.631 133.102C376.348 129.764 380.673 127.298 385.604 125.705C390.611 124.112 395.922 123.315 401.536 123.315C407.15 123.315 412.423 124.112 417.354 125.705C422.362 127.298 426.724 129.764 430.441 133.102C434.159 136.364 437.08 140.499 439.204 145.506C441.404 150.437 442.504 156.317 442.504 163.145V165.421C442.504 172.477 441.404 178.584 439.204 183.743C437.08 188.902 434.159 193.188 430.441 196.602C426.724 199.94 422.362 202.406 417.354 203.999C412.423 205.592 407.15 206.389 401.536 206.389ZM401.536 182.036C404.723 182.036 407.226 180.784 409.047 178.28C410.868 175.701 411.778 171.414 411.778 165.421V163.145C411.778 157.683 410.868 153.737 409.047 151.31C407.226 148.882 404.723 147.668 401.536 147.668C398.35 147.668 395.846 148.882 394.025 151.31C392.205 153.737 391.294 157.683 391.294 163.145V165.421C391.294 171.414 392.205 175.701 394.025 178.28C395.846 180.784 398.35 182.036 401.536 182.036Z"/>
</mask>
<path d="M0.2276 1.7386H31.4088L39.83 42.7066L48.365 1.7386H77.2702L86.6018 42.7066L96.5024 1.7386H123.132L101.51 81.3986H71.4664L60.883 38.1546L51.8928 81.3986H21.8496L0.2276 1.7386Z" stroke="#090809" stroke-width="1.58056" mask="url(#path-2-inside-1)"/>
<path d="M127.909 1.7386H190.499V23.5882H157.953V31.7818H187.085V50.2174H157.953V59.549H190.499V81.3986H127.909V1.7386Z" stroke="#090809" stroke-width="1.58056" mask="url(#path-2-inside-1)"/>
<path d="M197.923 1.7386H244.012C253.04 1.7386 259.754 3.44561 264.155 6.85961C268.555 10.2736 270.755 15.6601 270.755 23.0192C270.755 27.116 269.731 30.6438 267.682 33.6026C265.71 36.4855 262.941 38.5719 259.375 39.8616C269.238 42.1376 274.169 48.4725 274.169 58.8662C274.169 66.3011 271.817 71.9153 267.113 75.7086C262.41 79.502 254.671 81.3986 243.898 81.3986H197.923V1.7386ZM234.794 61.825C238.36 61.825 240.788 61.3698 242.078 60.4594C243.443 59.549 244.126 57.9558 244.126 55.6798C244.126 53.4797 243.443 51.9244 242.078 51.014C240.712 50.1036 238.208 49.6484 234.567 49.6484H227.966V61.825H234.794ZM233.315 32.3508C235.894 32.3508 237.753 31.9335 238.891 31.099C240.105 30.1886 240.712 28.7471 240.712 26.7746C240.712 24.8021 240.105 23.3985 238.891 22.564C237.753 21.7295 235.97 21.3122 233.542 21.3122H227.966V32.3508H233.315Z" stroke="#090809" stroke-width="1.58056" mask="url(#path-2-inside-1)"/>
<path d="M315.177 83.1056C303.797 83.1056 295.072 81.0951 289.003 77.0742C282.934 72.9774 279.33 66.4529 278.192 57.5006H308.235C308.463 59.0938 309.07 60.2697 310.056 61.0284C311.042 61.7871 312.749 62.1664 315.177 62.1664C317.832 62.1664 319.653 61.9009 320.64 61.3698C321.626 60.7629 322.119 59.8525 322.119 58.6386C322.119 57.9558 321.929 57.3868 321.55 56.9316C321.171 56.4764 320.412 56.0212 319.274 55.566C318.212 55.1108 316.656 54.6556 314.608 54.2004C312.636 53.6693 309.98 53.0624 306.642 52.3796C302.849 51.6209 299.359 50.6347 296.173 49.4208C292.986 48.1311 290.217 46.462 287.865 44.4136C285.513 42.3652 283.692 39.8616 282.403 36.9028C281.113 33.8681 280.468 30.3024 280.468 26.2056C280.468 21.8053 281.303 17.9741 282.972 14.7118C284.641 11.3737 286.993 8.64247 290.027 6.5182C293.138 4.31807 296.817 2.68694 301.066 1.62481C305.314 0.562673 310.018 0.0316057 315.177 0.0316057C326.026 0.0316057 334.333 2.23174 340.099 6.63201C345.865 11.0323 349.317 16.9878 350.455 24.4986H320.412C320.26 23.4365 319.767 22.6019 318.932 21.995C318.174 21.3122 316.922 20.9708 315.177 20.9708C312.067 20.9708 310.511 22.1467 310.511 24.4986C310.511 25.1814 310.701 25.7883 311.08 26.3194C311.535 26.8505 312.256 27.3436 313.242 27.7988C314.229 28.1781 315.556 28.5575 317.225 28.9368C318.97 29.3161 321.133 29.7334 323.712 30.1886C327.05 30.7955 330.388 31.6301 333.727 32.6922C337.141 33.6785 340.213 35.1199 342.944 37.0166C345.676 38.9133 347.876 41.3789 349.545 44.4136C351.29 47.3724 352.162 51.1278 352.162 55.6798C352.162 60.3835 351.29 64.4803 349.545 67.9702C347.8 71.3842 345.296 74.2292 342.034 76.5052C338.848 78.7053 334.978 80.3365 330.426 81.3986C325.874 82.5366 320.791 83.1056 315.177 83.1056Z" stroke="#090809" stroke-width="1.58056" mask="url(#path-2-inside-1)"/>
<path d="M375.837 25.8642H355.012V1.7386H426.706V25.8642H405.88V81.3986H375.837V25.8642Z" stroke="#090809" stroke-width="1.58056" mask="url(#path-2-inside-1)"/>
<path d="M433.525 1.7386H496.115V23.5882H463.568V31.7818H492.701V50.2174H463.568V59.549H496.115V81.3986H433.525V1.7386Z" stroke="#090809" stroke-width="1.58056" mask="url(#path-2-inside-1)"/>
<path d="M503.538 1.7386H539.385C545.758 1.7386 551.183 2.38347 555.659 3.67321C560.211 4.88707 563.928 6.7458 566.811 9.24941C569.694 11.6771 571.818 14.6739 573.184 18.2396C574.549 21.8053 575.232 25.9021 575.232 30.53C575.232 35.5372 574.132 39.9754 571.932 43.8446C569.808 47.7138 566.47 50.8623 561.918 53.29L577.508 81.3986H545.417L534.151 57.9558H533.581V81.3986H503.538V1.7386ZM536.996 37.4718C539.727 37.4718 541.661 36.789 542.799 35.4234C543.937 34.0578 544.506 32.4267 544.506 30.53C544.506 28.6333 543.899 27.0022 542.686 25.6366C541.548 24.271 539.651 23.5882 536.996 23.5882H533.581V37.4718H536.996Z" stroke="#090809" stroke-width="1.58056" mask="url(#path-2-inside-1)"/>
<path d="M38.123 206.389C26.743 206.389 18.0183 204.378 11.949 200.358C5.87967 196.261 2.276 189.736 1.138 180.784H31.1812C31.4088 182.377 32.0157 183.553 33.002 184.312C33.9883 185.07 35.6953 185.45 38.123 185.45C40.7783 185.45 42.5991 185.184 43.5854 184.653C44.5717 184.046 45.0648 183.136 45.0648 181.922C45.0648 181.239 44.8751 180.67 44.4958 180.215C44.1165 179.76 43.3578 179.305 42.2198 178.849C41.1577 178.394 39.6024 177.939 37.554 177.484C35.5815 176.953 32.9261 176.346 29.588 175.663C25.7947 174.904 22.3048 173.918 19.1184 172.704C15.932 171.414 13.1629 169.745 10.811 167.697C8.45913 165.649 6.63833 163.145 5.3486 160.186C4.05887 157.151 3.414 153.586 3.414 149.489C3.414 145.089 4.24853 141.257 5.9176 137.995C7.58667 134.657 9.93853 131.926 12.9732 129.802C16.0837 127.601 19.7633 125.97 24.0118 124.908C28.2603 123.846 32.9641 123.315 38.123 123.315C48.9719 123.315 57.2793 125.515 63.0452 129.915C68.8111 134.316 72.263 140.271 73.401 147.782H43.3578C43.2061 146.72 42.7129 145.885 41.8784 145.278C41.1197 144.596 39.8679 144.254 38.123 144.254C35.0125 144.254 33.4572 145.43 33.4572 147.782C33.4572 148.465 33.6469 149.072 34.0262 149.603C34.4814 150.134 35.2021 150.627 36.1884 151.082C37.1747 151.461 38.5023 151.841 40.1714 152.22C41.9163 152.599 44.0785 153.017 46.658 153.472C49.9961 154.079 53.3343 154.913 56.6724 155.976C60.0864 156.962 63.159 158.403 65.8902 160.3C68.6214 162.197 70.8215 164.662 72.4906 167.697C74.2355 170.656 75.108 174.411 75.108 178.963C75.108 183.667 74.2355 187.764 72.4906 191.254C70.7457 194.668 68.2421 197.513 64.9798 199.789C61.7934 201.989 57.9242 203.62 53.3722 204.682C48.8202 205.82 43.7371 206.389 38.123 206.389Z" stroke="#090809" stroke-width="1.58056" mask="url(#path-2-inside-1)"/>
<path d="M98.7828 149.148H77.9574V125.022H149.651V149.148H128.826V204.682H98.7828V149.148Z" stroke="#090809" stroke-width="1.58056" mask="url(#path-2-inside-1)"/>
<path d="M194.025 206.389C188.335 206.389 183.138 205.744 178.434 204.454C173.806 203.089 169.785 201.04 166.371 198.309C163.033 195.578 160.454 192.126 158.633 187.953C156.812 183.705 155.902 178.66 155.902 172.818V125.022H185.945V169.404C185.945 171.376 186.021 173.159 186.172 174.753C186.324 176.346 186.665 177.673 187.197 178.736C187.803 179.798 188.638 180.632 189.7 181.239C190.762 181.77 192.204 182.036 194.025 182.036C195.845 182.036 197.287 181.77 198.349 181.239C199.411 180.632 200.208 179.798 200.739 178.736C201.346 177.673 201.725 176.346 201.877 174.753C202.029 173.159 202.104 171.376 202.104 169.404V125.022H232.148V172.818C232.148 178.66 231.237 183.705 229.416 187.953C227.596 192.126 224.978 195.578 221.564 198.309C218.226 201.04 214.205 203.089 209.501 204.454C204.874 205.744 199.715 206.389 194.025 206.389Z" stroke="#090809" stroke-width="1.58056" mask="url(#path-2-inside-1)"/>
<path d="M240.709 125.022H276.556C282.55 125.022 287.936 125.856 292.716 127.526C297.571 129.119 301.706 131.509 305.12 134.695C308.534 137.881 311.151 141.864 312.972 146.644C314.869 151.424 315.817 156.924 315.817 163.145V165.421C315.817 171.794 314.869 177.446 312.972 182.377C311.076 187.233 308.344 191.329 304.779 194.668C301.289 197.93 297.04 200.433 292.033 202.178C287.102 203.847 281.563 204.682 275.418 204.682H240.709V125.022ZM275.418 180.556C276.86 180.556 278.149 180.329 279.287 179.874C280.501 179.418 281.525 178.622 282.36 177.484C283.27 176.346 283.953 174.79 284.408 172.818C284.864 170.845 285.091 168.38 285.091 165.421V163.145C285.091 157.758 284.295 154.079 282.701 152.106C281.108 150.134 278.68 149.148 275.418 149.148H270.752V180.556H275.418Z" stroke="#090809" stroke-width="1.58056" mask="url(#path-2-inside-1)"/>
<path d="M323.183 125.022H353.226V204.682H323.183V125.022Z" stroke="#090809" stroke-width="1.58056" mask="url(#path-2-inside-1)"/>
<path d="M401.536 206.389C395.922 206.389 390.611 205.592 385.604 203.999C380.673 202.406 376.348 199.978 372.631 196.716C368.914 193.378 365.955 189.129 363.755 183.97C361.63 178.811 360.568 172.628 360.568 165.421V163.145C360.568 156.317 361.63 150.437 363.755 145.506C365.955 140.499 368.914 136.364 372.631 133.102C376.348 129.764 380.673 127.298 385.604 125.705C390.611 124.112 395.922 123.315 401.536 123.315C407.15 123.315 412.423 124.112 417.354 125.705C422.362 127.298 426.724 129.764 430.441 133.102C434.159 136.364 437.08 140.499 439.204 145.506C441.404 150.437 442.504 156.317 442.504 163.145V165.421C442.504 172.477 441.404 178.584 439.204 183.743C437.08 188.902 434.159 193.188 430.441 196.602C426.724 199.94 422.362 202.406 417.354 203.999C412.423 205.592 407.15 206.389 401.536 206.389ZM401.536 182.036C404.723 182.036 407.226 180.784 409.047 178.28C410.868 175.701 411.778 171.414 411.778 165.421V163.145C411.778 157.683 410.868 153.737 409.047 151.31C407.226 148.882 404.723 147.668 401.536 147.668C398.35 147.668 395.846 148.882 394.025 151.31C392.205 153.737 391.294 157.683 391.294 163.145V165.421C391.294 171.414 392.205 175.701 394.025 178.28C395.846 180.784 398.35 182.036 401.536 182.036Z" stroke="#090809" stroke-width="1.58056" mask="url(#path-2-inside-1)"/>
<path d="M499.336 133.399L499.339 133.396C503.014 130.096 507.289 127.658 512.169 126.081C517.135 124.501 522.405 123.71 527.981 123.71C533.557 123.71 538.788 124.501 543.677 126.081L543.679 126.081C548.636 127.658 552.948 130.097 556.622 133.396L556.625 133.399C560.294 136.618 563.181 140.702 565.285 145.66L565.285 145.66L565.288 145.667C567.46 150.536 568.553 156.358 568.553 163.145V165.421C568.553 172.437 567.46 178.489 565.285 183.588L565.283 183.592C563.179 188.703 560.29 192.939 556.62 196.309C552.947 199.608 548.635 202.046 543.679 203.623L543.677 203.623C538.788 205.203 533.557 205.994 527.981 205.994C522.404 205.994 517.134 205.203 512.168 203.623C507.287 202.045 503.012 199.644 499.338 196.421C495.67 193.126 492.743 188.928 490.563 183.818C488.464 178.719 487.408 172.59 487.408 165.421V163.145C487.408 156.357 488.464 150.534 490.561 145.664C492.741 140.704 495.667 136.619 499.336 133.399ZM535.811 178.513L535.814 178.508C537.708 175.825 538.618 171.434 538.618 165.421V163.145C538.618 157.657 537.707 153.605 535.807 151.073C533.908 148.54 531.284 147.273 527.981 147.273C524.677 147.273 522.053 148.54 520.154 151.073C518.255 153.605 517.343 157.657 517.343 163.145V165.421C517.343 171.434 518.253 175.825 520.147 178.508L520.15 178.513C522.048 181.122 524.672 182.431 527.981 182.431C531.289 182.431 533.913 181.122 535.811 178.513ZM450.023 125.417H479.276V204.287H450.023V125.417Z" stroke="#090809" stroke-width="0.790278"/>
</svg>
